<svg version="1.1" xmlns="http://www.w3.org/2000/svg" xmlns:xlink="http://www.w3.org/1999/xlink" width="636" height="411"><defs/><g><text fill="#eeeeee" stroke="none" font-family="Arial" font-size="24px" font-style="normal" font-weight="normal" text-decoration="none" x="0" y="0">UNREGISTERED</text><text fill="#eeeeee" stroke="none" font-family="Arial" font-size="24px" font-style="normal" font-weight="normal" text-decoration="none" x="0" y="30">UNREGISTERED</text><text fill="#eeeeee" stroke="none" font-family="Arial" font-size="24px" font-style="normal" font-weight="normal" text-decoration="none" x="0" y="60">UNREGISTERED</text><text fill="#eeeeee" stroke="none" font-family="Arial" font-size="24px" font-style="normal" font-weight="normal" text-decoration="none" x="0" y="90">UNREGISTERED</text><text fill="#eeeeee" stroke="none" font-family="Arial" font-size="24px" font-style="normal" font-weight="normal" text-decoration="none" x="0" y="120">UNREGISTERED</text><text fill="#eeeeee" stroke="none" font-family="Arial" font-size="24px" font-style="normal" font-weight="normal" text-decoration="none" x="0" y="150">UNREGISTERED</text><text fill="#eeeeee" stroke="none" font-family="Arial" font-size="24px" font-style="normal" font-weight="normal" text-decoration="none" x="0" y="180">UNREGISTERED</text><text fill="#eeeeee" stroke="none" font-family="Arial" font-size="24px" font-style="normal" font-weight="normal" text-decoration="none" x="0" y="210">UNREGISTERED</text><text fill="#eeeeee" stroke="none" font-family="Arial" font-size="24px" font-style="normal" font-weight="normal" text-decoration="none" x="0" y="240">UNREGISTERED</text><text fill="#eeeeee" stroke="none" font-family="Arial" font-size="24px" font-style="normal" font-weight="normal" text-decoration="none" x="0" y="270">UNREGISTERED</text><text fill="#eeeeee" stroke="none" font-family="Arial" font-size="24px" font-style="normal" font-weight="normal" text-decoration="none" x="0" y="300">UNREGISTERED</text><text fill="#eeeeee" stroke="none" font-family="Arial" font-size="24px" font-style="normal" font-weight="normal" text-decoration="none" x="0" y="330">UNREGISTERED</text><text fill="#eeeeee" stroke="none" font-family="Arial" font-size="24px" font-style="normal" font-weight="normal" text-decoration="none" x="0" y="360">UNREGISTERED</text><text fill="#eeeeee" stroke="none" font-family="Arial" font-size="24px" font-style="normal" font-weight="normal" text-decoration="none" x="0" y="390">UNREGISTERED</text><text fill="#eeeeee" stroke="none" font-family="Arial" font-size="24px" font-style="normal" font-weight="normal" text-decoration="none" x="200" y="0">UNREGISTERED</text><text fill="#eeeeee" stroke="none" font-family="Arial" font-size="24px" font-style="normal" font-weight="normal" text-decoration="none" x="200" y="30">UNREGISTERED</text><text fill="#eeeeee" stroke="none" font-family="Arial" font-size="24px" font-style="normal" font-weight="normal" text-decoration="none" x="200" y="60">UNREGISTERED</text><text fill="#eeeeee" stroke="none" font-family="Arial" font-size="24px" font-style="normal" font-weight="normal" text-decoration="none" x="200" y="90">UNREGISTERED</text><text fill="#eeeeee" stroke="none" font-family="Arial" font-size="24px" font-style="normal" font-weight="normal" text-decoration="none" x="200" y="120">UNREGISTERED</text><text fill="#eeeeee" stroke="none" font-family="Arial" font-size="24px" font-style="normal" font-weight="normal" text-decoration="none" x="200" y="150">UNREGISTERED</text><text fill="#eeeeee" stroke="none" font-family="Arial" font-size="24px" font-style="normal" font-weight="normal" text-decoration="none" x="200" y="180">UNREGISTERED</text><text fill="#eeeeee" stroke="none" font-family="Arial" font-size="24px" font-style="normal" font-weight="normal" text-decoration="none" x="200" y="210">UNREGISTERED</text><text fill="#eeeeee" stroke="none" font-family="Arial" font-size="24px" font-style="normal" font-weight="normal" text-decoration="none" x="200" y="240">UNREGISTERED</text><text fill="#eeeeee" stroke="none" font-family="Arial" font-size="24px" font-style="normal" font-weight="normal" text-decoration="none" x="200" y="270">UNREGISTERED</text><text fill="#eeeeee" stroke="none" font-family="Arial" font-size="24px" font-style="normal" font-weight="normal" text-decoration="none" x="200" y="300">UNREGISTERED</text><text fill="#eeeeee" stroke="none" font-family="Arial" font-size="24px" font-style="normal" font-weight="normal" text-decoration="none" x="200" y="330">UNREGISTERED</text><text fill="#eeeeee" stroke="none" font-family="Arial" font-size="24px" font-style="normal" font-weight="normal" text-decoration="none" x="200" y="360">UNREGISTERED</text><text fill="#eeeeee" stroke="none" font-family="Arial" font-size="24px" font-style="normal" font-weight="normal" text-decoration="none" x="200" y="390">UNREGISTERED</text><text fill="#eeeeee" stroke="none" font-family="Arial" font-size="24px" font-style="normal" font-weight="normal" text-decoration="none" x="400" y="0">UNREGISTERED</text><text fill="#eeeeee" stroke="none" font-family="Arial" font-size="24px" font-style="normal" font-weight="normal" text-decoration="none" x="400" y="30">UNREGISTERED</text><text fill="#eeeeee" stroke="none" font-family="Arial" font-size="24px" font-style="normal" font-weight="normal" text-decoration="none" x="400" y="60">UNREGISTERED</text><text fill="#eeeeee" stroke="none" font-family="Arial" font-size="24px" font-style="normal" font-weight="normal" text-decoration="none" x="400" y="90">UNREGISTERED</text><text fill="#eeeeee" stroke="none" font-family="Arial" font-size="24px" font-style="normal" font-weight="normal" text-decoration="none" x="400" y="120">UNREGISTERED</text><text fill="#eeeeee" stroke="none" font-family="Arial" font-size="24px" font-style="normal" font-weight="normal" text-decoration="none" x="400" y="150">UNREGISTERED</text><text fill="#eeeeee" stroke="none" font-family="Arial" font-size="24px" font-style="normal" font-weight="normal" text-decoration="none" x="400" y="180">UNREGISTERED</text><text fill="#eeeeee" stroke="none" font-family="Arial" font-size="24px" font-style="normal" font-weight="normal" text-decoration="none" x="400" y="210">UNREGISTERED</text><text fill="#eeeeee" stroke="none" font-family="Arial" font-size="24px" font-style="normal" font-weight="normal" text-decoration="none" x="400" y="240">UNREGISTERED</text><text fill="#eeeeee" stroke="none" font-family="Arial" font-size="24px" font-style="normal" font-weight="normal" text-decoration="none" x="400" y="270">UNREGISTERED</text><text fill="#eeeeee" stroke="none" font-family="Arial" font-size="24px" font-style="normal" font-weight="normal" text-decoration="none" x="400" y="300">UNREGISTERED</text><text fill="#eeeeee" stroke="none" font-family="Arial" font-size="24px" font-style="normal" font-weight="normal" text-decoration="none" x="400" y="330">UNREGISTERED</text><text fill="#eeeeee" stroke="none" font-family="Arial" font-size="24px" font-style="normal" font-weight="normal" text-decoration="none" x="400" y="360">UNREGISTERED</text><text fill="#eeeeee" stroke="none" font-family="Arial" font-size="24px" font-style="normal" font-weight="normal" text-decoration="none" x="400" y="390">UNREGISTERED</text><text fill="#eeeeee" stroke="none" font-family="Arial" font-size="24px" font-style="normal" font-weight="normal" text-decoration="none" x="600" y="0">UNREGISTERED</text><text fill="#eeeeee" stroke="none" font-family="Arial" font-size="24px" font-style="normal" font-weight="normal" text-decoration="none" x="600" y="30">UNREGISTERED</text><text fill="#eeeeee" stroke="none" font-family="Arial" font-size="24px" font-style="normal" font-weight="normal" text-decoration="none" x="600" y="60">UNREGISTERED</text><text fill="#eeeeee" stroke="none" font-family="Arial" font-size="24px" font-style="normal" font-weight="normal" text-decoration="none" x="600" y="90">UNREGISTERED</text><text fill="#eeeeee" stroke="none" font-family="Arial" font-size="24px" font-style="normal" font-weight="normal" text-decoration="none" x="600" y="120">UNREGISTERED</text><text fill="#eeeeee" stroke="none" font-family="Arial" font-size="24px" font-style="normal" font-weight="normal" text-decoration="none" x="600" y="150">UNREGISTERED</text><text fill="#eeeeee" stroke="none" font-family="Arial" font-size="24px" font-style="normal" font-weight="normal" text-decoration="none" x="600" y="180">UNREGISTERED</text><text fill="#eeeeee" stroke="none" font-family="Arial" font-size="24px" font-style="normal" font-weight="normal" text-decoration="none" x="600" y="210">UNREGISTERED</text><text fill="#eeeeee" stroke="none" font-family="Arial" font-size="24px" font-style="normal" font-weight="normal" text-decoration="none" x="600" y="240">UNREGISTERED</text><text fill="#eeeeee" stroke="none" font-family="Arial" font-size="24px" font-style="normal" font-weight="normal" text-decoration="none" x="600" y="270">UNREGISTERED</text><text fill="#eeeeee" stroke="none" font-family="Arial" font-size="24px" font-style="normal" font-weight="normal" text-decoration="none" x="600" y="300">UNREGISTERED</text><text fill="#eeeeee" stroke="none" font-family="Arial" font-size="24px" font-style="normal" font-weight="normal" text-decoration="none" x="600" y="330">UNREGISTERED</text><text fill="#eeeeee" stroke="none" font-family="Arial" font-size="24px" font-style="normal" font-weight="normal" text-decoration="none" x="600" y="360">UNREGISTERED</text><text fill="#eeeeee" stroke="none" font-family="Arial" font-size="24px" font-style="normal" font-weight="normal" text-decoration="none" x="600" y="390">UNREGISTERED</text><g transform="translate(-30,-110) scale(1,1)"><path fill="#C0C0C0" stroke="none" d="M 209 183 L 248 183 Q 258 183 258 193 L 258 212 Q 258 222 248 222 L 209 222 Q 199 222 199 212 L 199 193 Q 199 183 209 183 Z" opacity="0.2"/></g><g transform="translate(-30,-110) scale(1,1)"><path fill="#ffffff" stroke="none" d="M 202 176 L 241 176 Q 251 176 251 186 L 251 205 Q 251 215 241 215 L 202 215 Q 192 215 192 205 L 192 186 Q 192 176 202 176 Z"/></g><g transform="translate(-30,-110) scale(1,1)"><path fill="none" stroke="#000000" d="M 202 176 L 241 176 Q 251 176 251 186 L 251 205 Q 251 215 241 215 L 202 215 Q 192 215 192 205 L 192 186 Q 192 176 202 176 Z" stroke-miterlimit="10"/></g><g transform="translate(-30,-110) scale(1,1)"><g><path fill="none" stroke="none"/><text fill="#000000" stroke="none" font-family="Arial" font-size="13px" font-style="normal" font-weight="bold" text-decoration="none" x="214.390625" y="195.5">off</text></g></g><g transform="translate(-30,-110) scale(1,1)"><path fill="#C0C0C0" stroke="none" d="M 409 127 L 509.25537109375 127 Q 519.25537109375 127 519.25537109375 137 L 519.25537109375 264 Q 519.25537109375 274 509.25537109375 274 L 409 274 Q 399 274 399 264 L 399 137 Q 399 127 409 127 Z" opacity="0.2"/></g><g transform="translate(-30,-110) scale(1,1)"><path fill="#ffffff" stroke="none" d="M 402 120 L 502.25537109375 120 Q 512.25537109375 120 512.25537109375 130 L 512.25537109375 257 Q 512.25537109375 267 502.25537109375 267 L 402 267 Q 392 267 392 257 L 392 130 Q 392 120 402 120 Z"/></g><g transform="translate(-30,-110) scale(1,1)"><path fill="none" stroke="#000000" d="M 402 120 L 502.25537109375 120 Q 512.25537109375 120 512.25537109375 130 L 512.25537109375 257 Q 512.25537109375 267 502.25537109375 267 L 402 267 Q 392 267 392 257 L 392 130 Q 392 120 402 120 Z" stroke-miterlimit="10"/></g><g transform="translate(-30,-110) scale(1,1)"><path fill="none" stroke="#000000" d="M 392 145 L 512.25537109375 145" stroke-miterlimit="10"/></g><g transform="translate(-30,-110) scale(1,1)"><path fill="none" stroke="#000000" d="M 392 168 L 512.25537109375 168" stroke-miterlimit="10"/></g><g transform="translate(-30,-110) scale(1,1)"><g><path fill="none" stroke="none"/><text fill="#000000" stroke="none" font-family="Arial" font-size="13px" font-style="normal" font-weight="bold" text-decoration="none" x="444.897705078125" y="139.5">on</text></g></g><g transform="translate(-30,-110) scale(1,1)"><g><path fill="none" stroke="none"/><text fill="#000000" stroke="none" font-family="Arial" font-size="13px" font-style="normal" font-weight="normal" text-decoration="none" x="397" y="162.5">do/preparar cafe</text></g></g><g transform="translate(-30,-110) scale(1,1)"><path fill="#C0C0C0" stroke="none" d="M 79 200.5 C 79 195.2532944 83.2532944 191 88.5 191 C 93.7467056 191 98 195.2532944 98 200.5 C 98 205.7467056 93.7467056 210 88.5 210 C 83.2532944 210 79 205.7467056 79 200.5 Z" opacity="0.2"/></g><g transform="translate(-30,-110) scale(1,1)"><path fill="#000000" stroke="none" d="M 72 193.5 C 72 188.2532944 76.2532944 184 81.5 184 C 86.7467056 184 91 188.2532944 91 193.5 C 91 198.7467056 86.7467056 203 81.5 203 C 76.2532944 203 72 198.7467056 72 193.5 Z"/></g><g transform="translate(-30,-110) scale(1,1)"><path fill="none" stroke="#000000" d="M 92 193 L 191 195" stroke-miterlimit="10"/></g><g transform="translate(-30,-110) scale(1,1)"><path fill="none" stroke="#000000" d="M 180.75437489691222 199.0033943406786 L 191 195 L 180.92442172605382 190.5860762981692" stroke-miterlimit="10"/></g><g transform="translate(-30,-110) scale(1,1)"><path fill="none" stroke="#000000" d="M 252 195 L 391 194" stroke-miterlimit="10"/></g><g transform="translate(-30,-110) scale(1,1)"><path fill="none" stroke="#000000" d="M 380.86787164445724 198.28251970069095 L 391 194 L 380.8073046110196 189.86370205286676" stroke-miterlimit="10"/></g><g transform="translate(-30,-110) scale(1,1)"><g><path fill="none" stroke="none"/><text fill="#000000" stroke="none" font-family="Arial" font-size="13px" font-style="normal" font-weight="normal" text-decoration="none" x="293.5" y="185.5">encender</text></g></g><g transform="translate(-30,-110) scale(1,1)"><path fill="none" stroke="#000000" d="M 391 215 L 296 248 L 251 216" stroke-miterlimit="10"/></g><g transform="translate(-30,-110) scale(1,1)"><path fill="none" stroke="#000000" d="M 261.7216416557979 218.45894290390402 L 251 216 L 256.84261031836576 225.32008072216792" stroke-miterlimit="10"/></g><g transform="translate(-30,-110) scale(1,1)"><g><path fill="none" stroke="none"/><text fill="#000000" stroke="none" font-family="Arial" font-size="13px" font-style="normal" font-weight="normal" text-decoration="none" x="266.5" y="266.5">apagar</text></g></g><g transform="translate(-30,-110) scale(1,1)"><path fill="#C0C0C0" stroke="none" d="M 121 327 L 160 327 Q 170 327 170 337 L 170 391 Q 170 401 160 401 L 121 401 Q 111 401 111 391 L 111 337 Q 111 327 121 327 Z" opacity="0.2"/></g><g transform="translate(-30,-110) scale(1,1)"><path fill="#ffffff" stroke="none" d="M 114 320 L 153 320 Q 163 320 163 330 L 163 384 Q 163 394 153 394 L 114 394 Q 104 394 104 384 L 104 330 Q 104 320 114 320 Z"/></g><g transform="translate(-30,-110) scale(1,1)"><path fill="none" stroke="#000000" d="M 114 320 L 153 320 Q 163 320 163 330 L 163 384 Q 163 394 153 394 L 114 394 Q 104 394 104 384 L 104 330 Q 104 320 114 320 Z" stroke-miterlimit="10"/></g><g transform="translate(-30,-110) scale(1,1)"><path fill="none" stroke="#000000" d="M 104 345 L 163 345" stroke-miterlimit="10"/></g><g transform="translate(-30,-110) scale(1,1)"><g><path fill="none" stroke="none"/><text fill="#000000" stroke="none" font-family="Arial" font-size="13px" font-style="normal" font-weight="bold" text-decoration="none" x="126.390625" y="339.5">off</text></g></g><g transform="translate(-30,-110) scale(1,1)"><path fill="#C0C0C0" stroke="none" d="M 401 303 L 653 303 Q 663 303 663 313 L 663 493 Q 663 503 653 503 L 401 503 Q 391 503 391 493 L 391 313 Q 391 303 401 303 Z" opacity="0.2"/></g><g transform="translate(-30,-110) scale(1,1)"><path fill="#ffffff" stroke="none" d="M 394 296 L 646 296 Q 656 296 656 306 L 656 486 Q 656 496 646 496 L 394 496 Q 384 496 384 486 L 384 306 Q 384 296 394 296 Z"/></g><g transform="translate(-30,-110) scale(1,1)"><path fill="none" stroke="#000000" d="M 394 296 L 646 296 Q 656 296 656 306 L 656 486 Q 656 496 646 496 L 394 496 Q 384 496 384 486 L 384 306 Q 384 296 394 296 Z" stroke-miterlimit="10"/></g><g transform="translate(-30,-110) scale(1,1)"><path fill="none" stroke="#000000" d="M 384 321 L 656 321" stroke-miterlimit="10"/></g><g transform="translate(-30,-110) scale(1,1)"><g><path fill="none" stroke="none"/><text fill="#000000" stroke="none" font-family="Arial" font-size="13px" font-style="normal" font-weight="bold" text-decoration="none" x="512.77001953125" y="315.5">on</text></g></g><g transform="translate(-30,-110) scale(1,1)"><path fill="#C0C0C0" stroke="none" d="M 465 455 L 594.8671875 455 Q 604.8671875 455 604.8671875 465 L 604.8671875 508 Q 604.8671875 518 594.8671875 518 L 465 518 Q 455 518 455 508 L 455 465 Q 455 455 465 455 Z" opacity="0.2"/></g><g transform="translate(-30,-110) scale(1,1)"><path fill="#ffffff" stroke="none" d="M 458 448 L 587.8671875 448 Q 597.8671875 448 597.8671875 458 L 597.8671875 501 Q 597.8671875 511 587.8671875 511 L 458 511 Q 448 511 448 501 L 448 458 Q 448 448 458 448 Z"/></g><g transform="translate(-30,-110) scale(1,1)"><path fill="none" stroke="#000000" d="M 458 448 L 587.8671875 448 Q 597.8671875 448 597.8671875 458 L 597.8671875 501 Q 597.8671875 511 587.8671875 511 L 458 511 Q 448 511 448 501 L 448 458 Q 448 448 458 448 Z" stroke-miterlimit="10"/></g><g transform="translate(-30,-110) scale(1,1)"><path fill="none" stroke="#000000" d="M 448 473 L 597.8671875 473" stroke-miterlimit="10"/></g><g transform="translate(-30,-110) scale(1,1)"><path fill="none" stroke="#000000" d="M 571.8671875 498 C 571.8671875 496.3431456 573.2103331 495 574.8671875 495 C 576.5240419 495 577.8671875 496.3431456 577.8671875 498 C 577.8671875 499.6568544 576.5240419 501 574.8671875 501 C 573.2103331 501 571.8671875 499.6568544 571.8671875 498 Z" stroke-miterlimit="10"/></g><g transform="translate(-30,-110) scale(1,1)"><path fill="none" stroke="#000000" d="M 577.8671875 498 L 583.8671875 498" stroke-miterlimit="10"/></g><g transform="translate(-30,-110) scale(1,1)"><path fill="none" stroke="#000000" d="M 583.8671875 498 C 583.8671875 496.3431456 585.2103331 495 586.8671875 495 C 588.5240419 495 589.8671875 496.3431456 589.8671875 498 C 589.8671875 499.6568544 588.5240419 501 586.8671875 501 C 585.2103331 501 583.8671875 499.6568544 583.8671875 498 Z" stroke-miterlimit="10"/></g><g transform="translate(-30,-110) scale(1,1)"><g><path fill="none" stroke="none"/><text fill="#000000" stroke="none" font-family="Arial" font-size="13px" font-style="normal" font-weight="bold" text-decoration="none" x="456.445068359375" y="467.5">en uso: StateMachine5</text></g></g><g transform="translate(-30,-110) scale(1,1)"><g><path fill="none" stroke="none"/><text fill="#000000" stroke="none" font-family="Arial" font-size="13px" font-style="normal" font-weight="normal" text-decoration="none" x="453" y="490.5">do/preparar cafe</text></g></g><g transform="translate(-30,-110) scale(1,1)"><path fill="#C0C0C0" stroke="none" d="M 383 398 C 383 394.1340064 386.1340064 391 390 391 C 393.8659936 391 397 394.1340064 397 398 C 397 401.8659936 393.8659936 405 390 405 C 386.1340064 405 383 401.8659936 383 398 Z" opacity="0.2"/></g><g transform="translate(-30,-110) scale(1,1)"><path fill="#ffffff" stroke="none" d="M 376 391 C 376 387.1340064 379.1340064 384 383 384 C 386.8659936 384 390 387.1340064 390 391 C 390 394.8659936 386.8659936 398 383 398 C 379.1340064 398 376 394.8659936 376 391 Z"/></g><g transform="translate(-30,-110) scale(1,1)"><path fill="none" stroke="#000000" d="M 376 391 C 376 387.1340064 379.1340064 384 383 384 C 386.8659936 384 390 387.1340064 390 391 C 390 394.8659936 386.8659936 398 383 398 C 379.1340064 398 376 394.8659936 376 391 Z" stroke-miterlimit="10"/></g><g transform="translate(-30,-110) scale(1,1)"><path fill="none" stroke="#000000" d="M 133 394 L 133 424 L 312 424 L 312 391 L 376 391" stroke-miterlimit="10"/></g><g transform="translate(-30,-110) scale(1,1)"><path fill="none" stroke="#000000" d="M 365.83732514237585 395.209517756016 L 376 391 L 365.83732514237585 386.790482243984" stroke-miterlimit="10"/></g><g transform="translate(-30,-110) scale(1,1)"><g><path fill="none" stroke="none"/><text fill="#000000" stroke="none" font-family="Arial" font-size="13px" font-style="normal" font-weight="normal" text-decoration="none" x="250.5" y="429.5">encender [lleno]</text></g></g><g transform="translate(-30,-110) scale(1,1)"><path fill="none" stroke="#000000" d="M 391 396 L 471 447" stroke-miterlimit="10"/></g><g transform="translate(-30,-110) scale(1,1)"><path fill="none" stroke="#000000" d="M 460.16769899264455 445.0865594114146 L 471 447 L 464.6934133174314 437.9873996862588" stroke-miterlimit="10"/></g><g transform="translate(-30,-110) scale(1,1)"><path fill="#C0C0C0" stroke="none" d="M 383 358 C 383 354.1340064 386.1340064 351 390 351 C 393.8659936 351 397 354.1340064 397 358 C 397 361.8659936 393.8659936 365 390 365 C 386.1340064 365 383 361.8659936 383 358 Z" opacity="0.2"/></g><g transform="translate(-30,-110) scale(1,1)"><path fill="#ffffff" stroke="none" d="M 376 351 C 376 347.1340064 379.1340064 344 383 344 C 386.8659936 344 390 347.1340064 390 351 C 390 354.8659936 386.8659936 358 383 358 C 379.1340064 358 376 354.8659936 376 351 Z"/></g><g transform="translate(-30,-110) scale(1,1)"><path fill="none" stroke="#000000" d="M 376 351 C 376 347.1340064 379.1340064 344 383 344 C 386.8659936 344 390 347.1340064 390 351 C 390 354.8659936 386.8659936 358 383 358 C 379.1340064 358 376 354.8659936 376 351 Z" stroke-miterlimit="10"/></g><g transform="translate(-30,-110) scale(1,1)"><path fill="none" stroke="#000000" d="M 164 356 L 375 351" stroke-miterlimit="10"/></g><g transform="translate(-30,-110) scale(1,1)"><path fill="none" stroke="#000000" d="M 364.9399008891712 355.4490904553967 L 375 351 L 364.74045366820087 347.03241773044755" stroke-miterlimit="10"/></g><g transform="translate(-30,-110) scale(1,1)"><g><path fill="none" stroke="none"/><text fill="#000000" stroke="none" font-family="Arial" font-size="13px" font-style="normal" font-weight="normal" text-decoration="none" x="220.5" y="344.5">encender [vacio]</text></g></g><g transform="translate(-30,-110) scale(1,1)"><path fill="none" stroke="#000000" d="M 391 352 L 447 362" stroke-miterlimit="10"/></g><g transform="translate(-30,-110) scale(1,1)"><path fill="none" stroke="#000000" d="M 436.2555888151897 364.3574622566912 L 447 362 L 437.7355764432664 356.0695315394617" stroke-miterlimit="10"/></g><g transform="translate(-30,-110) scale(1,1)"><path fill="#C0C0C0" stroke="none" d="M 465 351 L 591.99169921875 351 Q 601.99169921875 351 601.99169921875 361 L 601.99169921875 404 Q 601.99169921875 414 591.99169921875 414 L 465 414 Q 455 414 455 404 L 455 361 Q 455 351 465 351 Z" opacity="0.2"/></g><g transform="translate(-30,-110) scale(1,1)"><path fill="#ffffff" stroke="none" d="M 458 344 L 584.99169921875 344 Q 594.99169921875 344 594.99169921875 354 L 594.99169921875 397 Q 594.99169921875 407 584.99169921875 407 L 458 407 Q 448 407 448 397 L 448 354 Q 448 344 458 344 Z"/></g><g transform="translate(-30,-110) scale(1,1)"><path fill="none" stroke="#000000" d="M 458 344 L 584.99169921875 344 Q 594.99169921875 344 594.99169921875 354 L 594.99169921875 397 Q 594.99169921875 407 584.99169921875 407 L 458 407 Q 448 407 448 397 L 448 354 Q 448 344 458 344 Z" stroke-miterlimit="10"/></g><g transform="translate(-30,-110) scale(1,1)"><path fill="none" stroke="#000000" d="M 448 369 L 594.99169921875 369" stroke-miterlimit="10"/></g><g transform="translate(-30,-110) scale(1,1)"><path fill="none" stroke="#000000" d="M 568.99169921875 394 C 568.99169921875 392.3431456 570.33484481875 391 571.99169921875 391 C 573.64855361875 391 574.99169921875 392.3431456 574.99169921875 394 C 574.99169921875 395.6568544 573.64855361875 397 571.99169921875 397 C 570.33484481875 397 568.99169921875 395.6568544 568.99169921875 394 Z" stroke-miterlimit="10"/></g><g transform="translate(-30,-110) scale(1,1)"><path fill="none" stroke="#000000" d="M 574.99169921875 394 L 580.99169921875 394" stroke-miterlimit="10"/></g><g transform="translate(-30,-110) scale(1,1)"><path fill="none" stroke="#000000" d="M 580.99169921875 394 C 580.99169921875 392.3431456 582.33484481875 391 583.99169921875 391 C 585.64855361875 391 586.99169921875 392.3431456 586.99169921875 394 C 586.99169921875 395.6568544 585.64855361875 397 583.99169921875 397 C 582.33484481875 397 580.99169921875 395.6568544 580.99169921875 394 Z" stroke-miterlimit="10"/></g><g transform="translate(-30,-110) scale(1,1)"><g><path fill="none" stroke="none"/><text fill="#000000" stroke="none" font-family="Arial" font-size="13px" font-style="normal" font-weight="bold" text-decoration="none" x="462.964111328125" y="363.5">listo: StateMachine4</text></g></g><g transform="translate(-30,-110) scale(1,1)"><g><path fill="none" stroke="none"/><text fill="#000000" stroke="none" font-family="Arial" font-size="13px" font-style="normal" font-weight="normal" text-decoration="none" x="453" y="386.5">do/calertar cafe</text></g></g><g transform="translate(-30,-110) scale(1,1)"><path fill="none" stroke="#000000" d="M 383 415 L 88 456 L 116 395" stroke-miterlimit="10"/></g><g transform="translate(-30,-110) scale(1,1)"><path fill="none" stroke="#000000" d="M 115.58619481684555 405.99221384755566 L 116 395 L 107.93472659704206 402.48006450076065" stroke-miterlimit="10"/></g><g transform="translate(-30,-110) scale(1,1)"><g><path fill="none" stroke="none"/><text fill="#000000" stroke="none" font-family="Arial" font-size="13px" font-style="normal" font-weight="normal" text-decoration="none" x="53.5" y="455.5">apagar</text></g></g><g transform="translate(-30,-110) scale(1,1)"><path fill="none" stroke="#000000" d="M 522 447 L 521 408" stroke-miterlimit="10"/></g><g transform="translate(-30,-110) scale(1,1)"><path fill="none" stroke="#000000" d="M 525.4686304262053 418.05143482861985 L 521 408 L 517.0523611490146 418.26723660495804" stroke-miterlimit="10"/></g><g transform="translate(-30,-110) scale(1,1)"><g><path fill="none" stroke="none"/><text fill="#000000" stroke="none" font-family="Arial" font-size="13px" font-style="normal" font-weight="normal" text-decoration="none" x="464.5" y="432.5">cuando [vacio]</text></g></g><g transform="translate(-30,-110) scale(1,1)"><path fill="#C0C0C0" stroke="none" d="M 47 352.5 C 47 347.2532944 51.2532944 343 56.5 343 C 61.7467056 343 66 347.2532944 66 352.5 C 66 357.7467056 61.7467056 362 56.5 362 C 51.2532944 362 47 357.7467056 47 352.5 Z" opacity="0.2"/></g><g transform="translate(-30,-110) scale(1,1)"><path fill="#000000" stroke="none" d="M 40 345.5 C 40 340.2532944 44.2532944 336 49.5 336 C 54.7467056 336 59 340.2532944 59 345.5 C 59 350.7467056 54.7467056 355 49.5 355 C 44.2532944 355 40 350.7467056 40 345.5 Z"/></g><g transform="translate(-30,-110) scale(1,1)"><path fill="none" stroke="#000000" d="M 60 347 L 103 353" stroke-miterlimit="10"/></g><g transform="translate(-30,-110) scale(1,1)"><path fill="none" stroke="#000000" d="M 92.353098420859 355.76468565375615 L 103 353 L 93.51657572114352 347.42643166838377" stroke-miterlimit="10"/></g></g></svg>