<svg version="1.1" xmlns="http://www.w3.org/2000/svg" xmlns:xlink="http://www.w3.org/1999/xlink" width="509" height="596"><defs/><g><text fill="#eeeeee" stroke="none" font-family="Arial" font-size="24px" font-style="normal" font-weight="normal" text-decoration="none" x="0" y="0">UNREGISTERED</text><text fill="#eeeeee" stroke="none" font-family="Arial" font-size="24px" font-style="normal" font-weight="normal" text-decoration="none" x="0" y="30">UNREGISTERED</text><text fill="#eeeeee" stroke="none" font-family="Arial" font-size="24px" font-style="normal" font-weight="normal" text-decoration="none" x="0" y="60">UNREGISTERED</text><text fill="#eeeeee" stroke="none" font-family="Arial" font-size="24px" font-style="normal" font-weight="normal" text-decoration="none" x="0" y="90">UNREGISTERED</text><text fill="#eeeeee" stroke="none" font-family="Arial" font-size="24px" font-style="normal" font-weight="normal" text-decoration="none" x="0" y="120">UNREGISTERED</text><text fill="#eeeeee" stroke="none" font-family="Arial" font-size="24px" font-style="normal" font-weight="normal" text-decoration="none" x="0" y="150">UNREGISTERED</text><text fill="#eeeeee" stroke="none" font-family="Arial" font-size="24px" font-style="normal" font-weight="normal" text-decoration="none" x="0" y="180">UNREGISTERED</text><text fill="#eeeeee" stroke="none" font-family="Arial" font-size="24px" font-style="normal" font-weight="normal" text-decoration="none" x="0" y="210">UNREGISTERED</text><text fill="#eeeeee" stroke="none" font-family="Arial" font-size="24px" font-style="normal" font-weight="normal" text-decoration="none" x="0" y="240">UNREGISTERED</text><text fill="#eeeeee" stroke="none" font-family="Arial" font-size="24px" font-style="normal" font-weight="normal" text-decoration="none" x="0" y="270">UNREGISTERED</text><text fill="#eeeeee" stroke="none" font-family="Arial" font-size="24px" font-style="normal" font-weight="normal" text-decoration="none" x="0" y="300">UNREGISTERED</text><text fill="#eeeeee" stroke="none" font-family="Arial" font-size="24px" font-style="normal" font-weight="normal" text-decoration="none" x="0" y="330">UNREGISTERED</text><text fill="#eeeeee" stroke="none" font-family="Arial" font-size="24px" font-style="normal" font-weight="normal" text-decoration="none" x="0" y="360">UNREGISTERED</text><text fill="#eeeeee" stroke="none" font-family="Arial" font-size="24px" font-style="normal" font-weight="normal" text-decoration="none" x="0" y="390">UNREGISTERED</text><text fill="#eeeeee" stroke="none" font-family="Arial" font-size="24px" font-style="normal" font-weight="normal" text-decoration="none" x="0" y="420">UNREGISTERED</text><text fill="#eeeeee" stroke="none" font-family="Arial" font-size="24px" font-style="normal" font-weight="normal" text-decoration="none" x="0" y="450">UNREGISTERED</text><text fill="#eeeeee" stroke="none" font-family="Arial" font-size="24px" font-style="normal" font-weight="normal" text-decoration="none" x="0" y="480">UNREGISTERED</text><text fill="#eeeeee" stroke="none" font-family="Arial" font-size="24px" font-style="normal" font-weight="normal" text-decoration="none" x="0" y="510">UNREGISTERED</text><text fill="#eeeeee" stroke="none" font-family="Arial" font-size="24px" font-style="normal" font-weight="normal" text-decoration="none" x="0" y="540">UNREGISTERED</text><text fill="#eeeeee" stroke="none" font-family="Arial" font-size="24px" font-style="normal" font-weight="normal" text-decoration="none" x="0" y="570">UNREGISTERED</text><text fill="#eeeeee" stroke="none" font-family="Arial" font-size="24px" font-style="normal" font-weight="normal" text-decoration="none" x="200" y="0">UNREGISTERED</text><text fill="#eeeeee" stroke="none" font-family="Arial" font-size="24px" font-style="normal" font-weight="normal" text-decoration="none" x="200" y="30">UNREGISTERED</text><text fill="#eeeeee" stroke="none" font-family="Arial" font-size="24px" font-style="normal" font-weight="normal" text-decoration="none" x="200" y="60">UNREGISTERED</text><text fill="#eeeeee" stroke="none" font-family="Arial" font-size="24px" font-style="normal" font-weight="normal" text-decoration="none" x="200" y="90">UNREGISTERED</text><text fill="#eeeeee" stroke="none" font-family="Arial" font-size="24px" font-style="normal" font-weight="normal" text-decoration="none" x="200" y="120">UNREGISTERED</text><text fill="#eeeeee" stroke="none" font-family="Arial" font-size="24px" font-style="normal" font-weight="normal" text-decoration="none" x="200" y="150">UNREGISTERED</text><text fill="#eeeeee" stroke="none" font-family="Arial" font-size="24px" font-style="normal" font-weight="normal" text-decoration="none" x="200" y="180">UNREGISTERED</text><text fill="#eeeeee" stroke="none" font-family="Arial" font-size="24px" font-style="normal" font-weight="normal" text-decoration="none" x="200" y="210">UNREGISTERED</text><text fill="#eeeeee" stroke="none" font-family="Arial" font-size="24px" font-style="normal" font-weight="normal" text-decoration="none" x="200" y="240">UNREGISTERED</text><text fill="#eeeeee" stroke="none" font-family="Arial" font-size="24px" font-style="normal" font-weight="normal" text-decoration="none" x="200" y="270">UNREGISTERED</text><text fill="#eeeeee" stroke="none" font-family="Arial" font-size="24px" font-style="normal" font-weight="normal" text-decoration="none" x="200" y="300">UNREGISTERED</text><text fill="#eeeeee" stroke="none" font-family="Arial" font-size="24px" font-style="normal" font-weight="normal" text-decoration="none" x="200" y="330">UNREGISTERED</text><text fill="#eeeeee" stroke="none" font-family="Arial" font-size="24px" font-style="normal" font-weight="normal" text-decoration="none" x="200" y="360">UNREGISTERED</text><text fill="#eeeeee" stroke="none" font-family="Arial" font-size="24px" font-style="normal" font-weight="normal" text-decoration="none" x="200" y="390">UNREGISTERED</text><text fill="#eeeeee" stroke="none" font-family="Arial" font-size="24px" font-style="normal" font-weight="normal" text-decoration="none" x="200" y="420">UNREGISTERED</text><text fill="#eeeeee" stroke="none" font-family="Arial" font-size="24px" font-style="normal" font-weight="normal" text-decoration="none" x="200" y="450">UNREGISTERED</text><text fill="#eeeeee" stroke="none" font-family="Arial" font-size="24px" font-style="normal" font-weight="normal" text-decoration="none" x="200" y="480">UNREGISTERED</text><text fill="#eeeeee" stroke="none" font-family="Arial" font-size="24px" font-style="normal" font-weight="normal" text-decoration="none" x="200" y="510">UNREGISTERED</text><text fill="#eeeeee" stroke="none" font-family="Arial" font-size="24px" font-style="normal" font-weight="normal" text-decoration="none" x="200" y="540">UNREGISTERED</text><text fill="#eeeeee" stroke="none" font-family="Arial" font-size="24px" font-style="normal" font-weight="normal" text-decoration="none" x="200" y="570">UNREGISTERED</text><text fill="#eeeeee" stroke="none" font-family="Arial" font-size="24px" font-style="normal" font-weight="normal" text-decoration="none" x="400" y="0">UNREGISTERED</text><text fill="#eeeeee" stroke="none" font-family="Arial" font-size="24px" font-style="normal" font-weight="normal" text-decoration="none" x="400" y="30">UNREGISTERED</text><text fill="#eeeeee" stroke="none" font-family="Arial" font-size="24px" font-style="normal" font-weight="normal" text-decoration="none" x="400" y="60">UNREGISTERED</text><text fill="#eeeeee" stroke="none" font-family="Arial" font-size="24px" font-style="normal" font-weight="normal" text-decoration="none" x="400" y="90">UNREGISTERED</text><text fill="#eeeeee" stroke="none" font-family="Arial" font-size="24px" font-style="normal" font-weight="normal" text-decoration="none" x="400" y="120">UNREGISTERED</text><text fill="#eeeeee" stroke="none" font-family="Arial" font-size="24px" font-style="normal" font-weight="normal" text-decoration="none" x="400" y="150">UNREGISTERED</text><text fill="#eeeeee" stroke="none" font-family="Arial" font-size="24px" font-style="normal" font-weight="normal" text-decoration="none" x="400" y="180">UNREGISTERED</text><text fill="#eeeeee" stroke="none" font-family="Arial" font-size="24px" font-style="normal" font-weight="normal" text-decoration="none" x="400" y="210">UNREGISTERED</text><text fill="#eeeeee" stroke="none" font-family="Arial" font-size="24px" font-style="normal" font-weight="normal" text-decoration="none" x="400" y="240">UNREGISTERED</text><text fill="#eeeeee" stroke="none" font-family="Arial" font-size="24px" font-style="normal" font-weight="normal" text-decoration="none" x="400" y="270">UNREGISTERED</text><text fill="#eeeeee" stroke="none" font-family="Arial" font-size="24px" font-style="normal" font-weight="normal" text-decoration="none" x="400" y="300">UNREGISTERED</text><text fill="#eeeeee" stroke="none" font-family="Arial" font-size="24px" font-style="normal" font-weight="normal" text-decoration="none" x="400" y="330">UNREGISTERED</text><text fill="#eeeeee" stroke="none" font-family="Arial" font-size="24px" font-style="normal" font-weight="normal" text-decoration="none" x="400" y="360">UNREGISTERED</text><text fill="#eeeeee" stroke="none" font-family="Arial" font-size="24px" font-style="normal" font-weight="normal" text-decoration="none" x="400" y="390">UNREGISTERED</text><text fill="#eeeeee" stroke="none" font-family="Arial" font-size="24px" font-style="normal" font-weight="normal" text-decoration="none" x="400" y="420">UNREGISTERED</text><text fill="#eeeeee" stroke="none" font-family="Arial" font-size="24px" font-style="normal" font-weight="normal" text-decoration="none" x="400" y="450">UNREGISTERED</text><text fill="#eeeeee" stroke="none" font-family="Arial" font-size="24px" font-style="normal" font-weight="normal" text-decoration="none" x="400" y="480">UNREGISTERED</text><text fill="#eeeeee" stroke="none" font-family="Arial" font-size="24px" font-style="normal" font-weight="normal" text-decoration="none" x="400" y="510">UNREGISTERED</text><text fill="#eeeeee" stroke="none" font-family="Arial" font-size="24px" font-style="normal" font-weight="normal" text-decoration="none" x="400" y="540">UNREGISTERED</text><text fill="#eeeeee" stroke="none" font-family="Arial" font-size="24px" font-style="normal" font-weight="normal" text-decoration="none" x="400" y="570">UNREGISTERED</text><g transform="translate(-118,-70) scale(1,1)"><path fill="#C0C0C0" stroke="none" d="M 145 215 L 215.6435546875 215 Q 225.6435546875 215 225.6435546875 225 L 225.6435546875 245 Q 225.6435546875 255 215.6435546875 255 L 145 255 Q 135 255 135 245 L 135 225 Q 135 215 145 215 Z" opacity="0.2"/></g><g transform="translate(-118,-70) scale(1,1)"><path fill="#ffffff" stroke="none" d="M 138 208 L 208.6435546875 208 Q 218.6435546875 208 218.6435546875 218 L 218.6435546875 238 Q 218.6435546875 248 208.6435546875 248 L 138 248 Q 128 248 128 238 L 128 218 Q 128 208 138 208 Z"/></g><g transform="translate(-118,-70) scale(1,1)"><path fill="none" stroke="#000000" d="M 138 208 L 208.6435546875 208 Q 218.6435546875 208 218.6435546875 218 L 218.6435546875 238 Q 218.6435546875 248 208.6435546875 248 L 138 248 Q 128 248 128 238 L 128 218 Q 128 208 138 208 Z" stroke-miterlimit="10"/></g><g transform="translate(-118,-70) scale(1,1)"><g><path fill="none" stroke="none"/><text fill="#000000" stroke="none" font-family="Arial" font-size="13px" font-style="normal" font-weight="bold" text-decoration="none" x="134.65185546875" y="227.5">agregar agua</text></g></g><g transform="translate(-118,-70) scale(1,1)"><path fill="#C0C0C0" stroke="none" d="M 289 215 L 353.1181640625 215 Q 363.1181640625 215 363.1181640625 225 L 363.1181640625 245 Q 363.1181640625 255 353.1181640625 255 L 289 255 Q 279 255 279 245 L 279 225 Q 279 215 289 215 Z" opacity="0.2"/></g><g transform="translate(-118,-70) scale(1,1)"><path fill="#ffffff" stroke="none" d="M 282 208 L 346.1181640625 208 Q 356.1181640625 208 356.1181640625 218 L 356.1181640625 238 Q 356.1181640625 248 346.1181640625 248 L 282 248 Q 272 248 272 238 L 272 218 Q 272 208 282 208 Z"/></g><g transform="translate(-118,-70) scale(1,1)"><path fill="none" stroke="#000000" d="M 282 208 L 346.1181640625 208 Q 356.1181640625 208 356.1181640625 218 L 356.1181640625 238 Q 356.1181640625 248 346.1181640625 248 L 282 248 Q 272 248 272 238 L 272 218 Q 272 208 282 208 Z" stroke-miterlimit="10"/></g><g transform="translate(-118,-70) scale(1,1)"><g><path fill="none" stroke="none"/><text fill="#000000" stroke="none" font-family="Arial" font-size="13px" font-style="normal" font-weight="bold" text-decoration="none" x="280.832275390625" y="227.5">limpiar flitro</text></g></g><g transform="translate(-118,-70) scale(1,1)"><path fill="#C0C0C0" stroke="none" d="M 289 311 L 355.32080078125 311 Q 365.32080078125 311 365.32080078125 321 L 365.32080078125 341 Q 365.32080078125 351 355.32080078125 351 L 289 351 Q 279 351 279 341 L 279 321 Q 279 311 289 311 Z" opacity="0.2"/></g><g transform="translate(-118,-70) scale(1,1)"><path fill="#ffffff" stroke="none" d="M 282 304 L 348.32080078125 304 Q 358.32080078125 304 358.32080078125 314 L 358.32080078125 334 Q 358.32080078125 344 348.32080078125 344 L 282 344 Q 272 344 272 334 L 272 314 Q 272 304 282 304 Z"/></g><g transform="translate(-118,-70) scale(1,1)"><path fill="none" stroke="#000000" d="M 282 304 L 348.32080078125 304 Q 358.32080078125 304 358.32080078125 314 L 358.32080078125 334 Q 358.32080078125 344 348.32080078125 344 L 282 344 Q 272 344 272 334 L 272 314 Q 272 304 282 304 Z" stroke-miterlimit="10"/></g><g transform="translate(-118,-70) scale(1,1)"><g><path fill="none" stroke="none"/><text fill="#000000" stroke="none" font-family="Arial" font-size="13px" font-style="normal" font-weight="bold" text-decoration="none" x="278.66455078125" y="323.5">agregar cafe</text></g></g><g transform="translate(-118,-70) scale(1,1)"><path fill="#C0C0C0" stroke="none" d="M 193 463 L 264.3798828125 463 Q 274.3798828125 463 274.3798828125 473 L 274.3798828125 493 Q 274.3798828125 503 264.3798828125 503 L 193 503 Q 183 503 183 493 L 183 473 Q 183 463 193 463 Z" opacity="0.2"/></g><g transform="translate(-118,-70) scale(1,1)"><path fill="#ffffff" stroke="none" d="M 186 456 L 257.3798828125 456 Q 267.3798828125 456 267.3798828125 466 L 267.3798828125 486 Q 267.3798828125 496 257.3798828125 496 L 186 496 Q 176 496 176 486 L 176 466 Q 176 456 186 456 Z"/></g><g transform="translate(-118,-70) scale(1,1)"><path fill="none" stroke="#000000" d="M 186 456 L 257.3798828125 456 Q 267.3798828125 456 267.3798828125 466 L 267.3798828125 486 Q 267.3798828125 496 257.3798828125 496 L 186 496 Q 176 496 176 486 L 176 466 Q 176 456 186 456 Z" stroke-miterlimit="10"/></g><g transform="translate(-118,-70) scale(1,1)"><g><path fill="none" stroke="none"/><text fill="#000000" stroke="none" font-family="Arial" font-size="13px" font-style="normal" font-weight="bold" text-decoration="none" x="183.029541015625" y="475.5">preparar café</text></g></g><g transform="translate(-118,-70) scale(1,1)"><path fill="#C0C0C0" stroke="none" d="M 217 527 L 272.47265625 527 Q 282.47265625 527 282.47265625 537 L 282.47265625 557 Q 282.47265625 567 272.47265625 567 L 217 567 Q 207 567 207 557 L 207 537 Q 207 527 217 527 Z" opacity="0.2"/></g><g transform="translate(-118,-70) scale(1,1)"><path fill="#ffffff" stroke="none" d="M 210 520 L 265.47265625 520 Q 275.47265625 520 275.47265625 530 L 275.47265625 550 Q 275.47265625 560 265.47265625 560 L 210 560 Q 200 560 200 550 L 200 530 Q 200 520 210 520 Z"/></g><g transform="translate(-118,-70) scale(1,1)"><path fill="none" stroke="#000000" d="M 210 520 L 265.47265625 520 Q 275.47265625 520 275.47265625 530 L 275.47265625 550 Q 275.47265625 560 265.47265625 560 L 210 560 Q 200 560 200 550 L 200 530 Q 200 520 210 520 Z" stroke-miterlimit="10"/></g><g transform="translate(-118,-70) scale(1,1)"><g><path fill="none" stroke="none"/><text fill="#000000" stroke="none" font-family="Arial" font-size="13px" font-style="normal" font-weight="bold" text-decoration="none" x="207.0263671875" y="539.5">vertir agua</text></g></g><g transform="translate(-118,-70) scale(1,1)"><path fill="#C0C0C0" stroke="none" d="M 202 415 L 291 415 Q 294 415 294 418 L 294 417 Q 294 420 291 420 L 202 420 Q 199 420 199 417 L 199 418 Q 199 415 202 415 Z" opacity="0.2"/></g><g transform="translate(-118,-70) scale(1,1)"><path fill="#000000" stroke="none" d="M 195 408 L 284 408 Q 287 408 287 411 L 287 411 Q 287 414 284 414 L 195 414 Q 192 414 192 411 L 192 411 Q 192 408 195 408 Z"/></g><g transform="translate(-118,-70) scale(1,1)"><path fill="none" stroke="#000000" d="M 181 249 L 238 407" stroke-miterlimit="10"/></g><g transform="translate(-118,-70) scale(1,1)"><path fill="none" stroke="#000000" d="M 230.591554557358 398.8688908429786 L 238 407 L 238.5110004129551 396.01187556595943" stroke-miterlimit="10"/></g><g transform="translate(-118,-70) scale(1,1)"><path fill="none" stroke="#000000" d="M 314 249 L 315 303" stroke-miterlimit="10"/></g><g transform="translate(-118,-70) scale(1,1)"><path fill="none" stroke="#000000" d="M 310.6030384339769 292.9170079347985 L 315 303 L 319.02063072400256 292.76112659609436" stroke-miterlimit="10"/></g><g transform="translate(-118,-70) scale(1,1)"><path fill="none" stroke="#000000" d="M 296 345 L 242 407" stroke-miterlimit="10"/></g><g transform="translate(-118,-70) scale(1,1)"><path fill="none" stroke="#000000" d="M 245.50032929482506 396.57178371782646 L 242 407 L 251.8489690295616 402.10124413195183" stroke-miterlimit="10"/></g><g transform="translate(-118,-70) scale(1,1)"><path fill="none" stroke="#000000" d="M 226 497 L 232 519" stroke-miterlimit="10"/></g><g transform="translate(-118,-70) scale(1,1)"><path fill="none" stroke="#000000" d="M 225.26483291969117 510.30301636196066 L 232 519 L 233.38721379141532 508.08782157876317" stroke-miterlimit="10"/></g><g transform="translate(-118,-70) scale(1,1)"><path fill="none" stroke="#000000" d="M 238 414 L 227 455" stroke-miterlimit="10"/></g><g transform="translate(-118,-70) scale(1,1)"><path fill="none" stroke="#000000" d="M 225.56770679060793 444.0936469815832 L 227 455 L 233.6991719363283 446.2752595816545" stroke-miterlimit="10"/></g><g transform="translate(-118,-70) scale(1,1)"><path fill="#C0C0C0" stroke="none" d="M 439 151 L 523.83544921875 151 L 523.83544921875 191 L 439 191 L 449.25 171.5" opacity="0.2"/></g><g transform="translate(-118,-70) scale(1,1)"><path fill="#ffffff" stroke="none" d="M 432 144 L 516.83544921875 144 L 516.83544921875 184 L 432 184 L 442.25 164.5"/></g><g transform="translate(-118,-70) scale(1,1)"><path fill="none" stroke="#000000" d="M 432 144 L 516.83544921875 144 L 516.83544921875 184 L 432 184 L 442.25 164.5 L 432 144" stroke-miterlimit="10"/></g><g transform="translate(-118,-70) scale(1,1)"><g><path fill="none" stroke="none"/><text fill="#000000" stroke="none" font-family="Arial" font-size="13px" font-style="normal" font-weight="bold" text-decoration="none" x="439.00732421875" y="163.5">on - prender</text></g></g><g transform="translate(-118,-70) scale(1,1)"><path fill="#C0C0C0" stroke="none" d="M 487 623 L 566.78271484375 623 L 566.78271484375 663 L 487 663 L 497.25 643.5" opacity="0.2"/></g><g transform="translate(-118,-70) scale(1,1)"><path fill="#ffffff" stroke="none" d="M 480 616 L 559.78271484375 616 L 559.78271484375 656 L 480 656 L 490.25 636.5"/></g><g transform="translate(-118,-70) scale(1,1)"><path fill="none" stroke="#000000" d="M 480 616 L 559.78271484375 616 L 559.78271484375 656 L 480 656 L 490.25 636.5 L 480 616" stroke-miterlimit="10"/></g><g transform="translate(-118,-70) scale(1,1)"><g><path fill="none" stroke="none"/><text fill="#000000" stroke="none" font-family="Arial" font-size="13px" font-style="normal" font-weight="bold" text-decoration="none" x="486.76611328125" y="635.5">off - apagar</text></g></g><g transform="translate(-118,-70) scale(1,1)"><path fill="#C0C0C0" stroke="none" d="M 513 359 L 581.49169921875 359 Q 591.49169921875 359 591.49169921875 369 L 591.49169921875 389 Q 591.49169921875 399 581.49169921875 399 L 513 399 Q 503 399 503 389 L 503 369 Q 503 359 513 359 Z" opacity="0.2"/></g><g transform="translate(-118,-70) scale(1,1)"><path fill="#ffffff" stroke="none" d="M 506 352 L 574.49169921875 352 Q 584.49169921875 352 584.49169921875 362 L 584.49169921875 382 Q 584.49169921875 392 574.49169921875 392 L 506 392 Q 496 392 496 382 L 496 362 Q 496 352 506 352 Z"/></g><g transform="translate(-118,-70) scale(1,1)"><path fill="none" stroke="#000000" d="M 506 352 L 574.49169921875 352 Q 584.49169921875 352 584.49169921875 362 L 584.49169921875 382 Q 584.49169921875 392 574.49169921875 392 L 506 392 Q 496 392 496 382 L 496 362 Q 496 352 506 352 Z" stroke-miterlimit="10"/></g><g transform="translate(-118,-70) scale(1,1)"><g><path fill="none" stroke="none"/><text fill="#000000" stroke="none" font-family="Arial" font-size="13px" font-style="normal" font-weight="bold" text-decoration="none" x="503.029541015625" y="371.5">calentar café</text></g></g><g transform="translate(-118,-70) scale(1,1)"><path fill="#C0C0C0" stroke="none" d="M 383 416.5 L 394.5 407 L 405 416.5 L 394.5 425 L 383 416.5" opacity="0.2"/></g><g transform="translate(-118,-70) scale(1,1)"><path fill="#ffffff" stroke="none" d="M 376 409 L 387 400 L 398 409 L 387 418 L 376 409"/></g><g transform="translate(-118,-70) scale(1,1)"><path fill="none" stroke="#000000" d="M 376 409 L 387 400 L 398 409 L 387 418 L 376 409 L 376 409" stroke-miterlimit="10"/></g><g transform="translate(-118,-70) scale(1,1)"><path fill="#C0C0C0" stroke="none" d="M 466 255 L 529 255 Q 532 255 532 258 L 532 257 Q 532 260 529 260 L 466 260 Q 463 260 463 257 L 463 258 Q 463 255 466 255 Z" opacity="0.2"/></g><g transform="translate(-118,-70) scale(1,1)"><path fill="#000000" stroke="none" d="M 459 248 L 522 248 Q 525 248 525 251 L 525 251 Q 525 254 522 254 L 459 254 Q 456 254 456 251 L 456 251 Q 456 248 459 248 Z"/></g><g transform="translate(-118,-70) scale(1,1)"><path fill="none" stroke="#000000" d="M 478 185 L 489 247" stroke-miterlimit="10"/></g><g transform="translate(-118,-70) scale(1,1)"><path fill="none" stroke="#000000" d="M 483.079880762285 237.72895970177905 L 489 247 L 491.36945900510455 236.258228078053" stroke-miterlimit="10"/></g><g transform="translate(-118,-70) scale(1,1)"><path fill="none" stroke="#000000" d="M 492 254 L 531 351" stroke-miterlimit="10"/></g><g transform="translate(-118,-70) scale(1,1)"><path fill="none" stroke="#000000" d="M 523.3032673321792 343.14122743425537 L 531 351 L 531.1145795106447 340.00059676456306" stroke-miterlimit="10"/></g><g transform="translate(-118,-70) scale(1,1)"><path fill="none" stroke="#000000" d="M 489 254 L 456 408 L 399 409" stroke-miterlimit="10"/></g><g transform="translate(-118,-70) scale(1,1)"><path fill="none" stroke="#000000" d="M 409.0872714227911 404.612864802295 L 399 409 L 409.23495107500423 413.03060497844547" stroke-miterlimit="10"/></g><g transform="translate(-118,-70) scale(1,1)"><path fill="none" stroke="#000000" d="M 375 409 L 288 410" stroke-miterlimit="10"/></g><g transform="translate(-118,-70) scale(1,1)"><path fill="none" stroke="#000000" d="M 298.11362152316485 405.6739556536975 L 288 410 L 298.21038565436834 414.0924350683999" stroke-miterlimit="10"/></g><g transform="translate(-118,-70) scale(1,1)"><path fill="#C0C0C0" stroke="none" d="M 599 643.5 C 599 636.59644 604.59644 631 611.5 631 C 618.40356 631 624 636.59644 624 643.5 C 624 650.40356 618.40356 656 611.5 656 C 604.59644 656 599 650.40356 599 643.5 Z" opacity="0.2"/></g><g transform="translate(-118,-70) scale(1,1)"><path fill="none" stroke="#000000" d="M 592 636.5 C 592 629.59644 597.59644 624 604.5 624 C 611.40356 624 617 629.59644 617 636.5 C 617 643.40356 611.40356 649 604.5 649 C 597.59644 649 592 643.40356 592 636.5 Z" stroke-miterlimit="10"/></g><g transform="translate(-118,-70) scale(1,1)"><path fill="#000000" stroke="none" d="M 597 636.5 C 597 632.357864 600.357864 629 604.5 629 C 608.642136 629 612 632.357864 612 636.5 C 612 640.642136 608.642136 644 604.5 644 C 600.357864 644 597 640.642136 597 636.5 Z"/></g><g transform="translate(-118,-70) scale(1,1)"><path fill="none" stroke="#000000" d="M 561 636 L 591 636" stroke-miterlimit="10"/></g><g transform="translate(-118,-70) scale(1,1)"><path fill="none" stroke="#000000" d="M 580.8373251423759 640.209517756016 L 591 636 L 580.8373251423758 631.790482243984" stroke-miterlimit="10"/></g><g transform="translate(-118,-70) scale(1,1)"><path fill="#C0C0C0" stroke="none" d="M 202 615 L 265 615 Q 268 615 268 618 L 268 617 Q 268 620 265 620 L 202 620 Q 199 620 199 617 L 199 618 Q 199 615 202 615 Z" opacity="0.2"/></g><g transform="translate(-118,-70) scale(1,1)"><path fill="#000000" stroke="none" d="M 195 608 L 258 608 Q 261 608 261 611 L 261 611 Q 261 614 258 614 L 195 614 Q 192 614 192 611 L 192 611 Q 192 608 195 608 Z"/></g><g transform="translate(-118,-70) scale(1,1)"><path fill="none" stroke="#000000" d="M 234 561 L 226 607" stroke-miterlimit="10"/></g><g transform="translate(-118,-70) scale(1,1)"><path fill="none" stroke="#000000" d="M 223.5940182733712 596.2663495524063 L 226 607 L 231.8885510240694 597.7088769873103" stroke-miterlimit="10"/></g><g transform="translate(-118,-70) scale(1,1)"><path fill="none" stroke="#000000" d="M 262 610 L 392 608 L 387 419" stroke-miterlimit="10"/></g><g transform="translate(-118,-70) scale(1,1)"><path fill="none" stroke="#000000" d="M 391.4768052749058 429.04779650125215 L 387 419 L 383.0607143259198 429.2704444099555" stroke-miterlimit="10"/></g><g transform="translate(-118,-70) scale(1,1)"><path fill="none" stroke="#000000" d="M 226 614 L 224 632 L 479 635" stroke-miterlimit="10"/></g><g transform="translate(-118,-70) scale(1,1)"><path fill="none" stroke="#000000" d="M 468.78850805726205 639.0896738627179 L 479 635 L 468.88754868008897 630.6712209224274" stroke-miterlimit="10"/></g><g transform="translate(-118,-70) scale(1,1)"><path fill="#C0C0C0" stroke="none" d="M 223 96.5 C 223 91.2532944 227.2532944 87 232.5 87 C 237.7467056 87 242 91.2532944 242 96.5 C 242 101.7467056 237.7467056 106 232.5 106 C 227.2532944 106 223 101.7467056 223 96.5 Z" opacity="0.2"/></g><g transform="translate(-118,-70) scale(1,1)"><path fill="#000000" stroke="none" d="M 216 89.5 C 216 84.2532944 220.2532944 80 225.5 80 C 230.7467056 80 235 84.2532944 235 89.5 C 235 94.7467056 230.7467056 99 225.5 99 C 220.2532944 99 216 94.7467056 216 89.5 Z"/></g><g transform="translate(-118,-70) scale(1,1)"><path fill="none" stroke="#000000" d="M 169 100 L 172 207" stroke-miterlimit="10"/></g><g transform="translate(-118,-70) scale(1,1)"><path fill="none" stroke="#000000" d="M 167.5073129270964 196.9592947028127 L 172 207 L 175.92304130853753 196.72333970146389" stroke-miterlimit="10"/></g><g transform="translate(-118,-70) scale(1,1)"><path fill="none" stroke="#000000" d="M 232 100 L 301 207" stroke-miterlimit="10"/></g><g transform="translate(-118,-70) scale(1,1)"><path fill="none" stroke="#000000" d="M 291.9546296824134 200.7405051467612 L 301 207 L 299.03008856761846 196.17782605256355" stroke-miterlimit="10"/></g><g transform="translate(-118,-70) scale(1,1)"><path fill="#C0C0C0" stroke="none" d="M 167 96.5 C 167 91.2532944 171.2532944 87 176.5 87 C 181.7467056 87 186 91.2532944 186 96.5 C 186 101.7467056 181.7467056 106 176.5 106 C 171.2532944 106 167 101.7467056 167 96.5 Z" opacity="0.2"/></g><g transform="translate(-118,-70) scale(1,1)"><path fill="#000000" stroke="none" d="M 160 89.5 C 160 84.2532944 164.2532944 80 169.5 80 C 174.7467056 80 179 84.2532944 179 89.5 C 179 94.7467056 174.7467056 99 169.5 99 C 164.2532944 99 160 94.7467056 160 89.5 Z"/></g></g></svg>