<svg version="1.1" xmlns="http://www.w3.org/2000/svg" xmlns:xlink="http://www.w3.org/1999/xlink" width="580.49169921875" height="382"><defs/><g><text fill="#eeeeee" stroke="none" font-family="Arial" font-size="24px" font-style="normal" font-weight="normal" text-decoration="none" x="0" y="0">UNREGISTERED</text><text fill="#eeeeee" stroke="none" font-family="Arial" font-size="24px" font-style="normal" font-weight="normal" text-decoration="none" x="0" y="30">UNREGISTERED</text><text fill="#eeeeee" stroke="none" font-family="Arial" font-size="24px" font-style="normal" font-weight="normal" text-decoration="none" x="0" y="60">UNREGISTERED</text><text fill="#eeeeee" stroke="none" font-family="Arial" font-size="24px" font-style="normal" font-weight="normal" text-decoration="none" x="0" y="90">UNREGISTERED</text><text fill="#eeeeee" stroke="none" font-family="Arial" font-size="24px" font-style="normal" font-weight="normal" text-decoration="none" x="0" y="120">UNREGISTERED</text><text fill="#eeeeee" stroke="none" font-family="Arial" font-size="24px" font-style="normal" font-weight="normal" text-decoration="none" x="0" y="150">UNREGISTERED</text><text fill="#eeeeee" stroke="none" font-family="Arial" font-size="24px" font-style="normal" font-weight="normal" text-decoration="none" x="0" y="180">UNREGISTERED</text><text fill="#eeeeee" stroke="none" font-family="Arial" font-size="24px" font-style="normal" font-weight="normal" text-decoration="none" x="0" y="210">UNREGISTERED</text><text fill="#eeeeee" stroke="none" font-family="Arial" font-size="24px" font-style="normal" font-weight="normal" text-decoration="none" x="0" y="240">UNREGISTERED</text><text fill="#eeeeee" stroke="none" font-family="Arial" font-size="24px" font-style="normal" font-weight="normal" text-decoration="none" x="0" y="270">UNREGISTERED</text><text fill="#eeeeee" stroke="none" font-family="Arial" font-size="24px" font-style="normal" font-weight="normal" text-decoration="none" x="0" y="300">UNREGISTERED</text><text fill="#eeeeee" stroke="none" font-family="Arial" font-size="24px" font-style="normal" font-weight="normal" text-decoration="none" x="0" y="330">UNREGISTERED</text><text fill="#eeeeee" stroke="none" font-family="Arial" font-size="24px" font-style="normal" font-weight="normal" text-decoration="none" x="0" y="360">UNREGISTERED</text><text fill="#eeeeee" stroke="none" font-family="Arial" font-size="24px" font-style="normal" font-weight="normal" text-decoration="none" x="200" y="0">UNREGISTERED</text><text fill="#eeeeee" stroke="none" font-family="Arial" font-size="24px" font-style="normal" font-weight="normal" text-decoration="none" x="200" y="30">UNREGISTERED</text><text fill="#eeeeee" stroke="none" font-family="Arial" font-size="24px" font-style="normal" font-weight="normal" text-decoration="none" x="200" y="60">UNREGISTERED</text><text fill="#eeeeee" stroke="none" font-family="Arial" font-size="24px" font-style="normal" font-weight="normal" text-decoration="none" x="200" y="90">UNREGISTERED</text><text fill="#eeeeee" stroke="none" font-family="Arial" font-size="24px" font-style="normal" font-weight="normal" text-decoration="none" x="200" y="120">UNREGISTERED</text><text fill="#eeeeee" stroke="none" font-family="Arial" font-size="24px" font-style="normal" font-weight="normal" text-decoration="none" x="200" y="150">UNREGISTERED</text><text fill="#eeeeee" stroke="none" font-family="Arial" font-size="24px" font-style="normal" font-weight="normal" text-decoration="none" x="200" y="180">UNREGISTERED</text><text fill="#eeeeee" stroke="none" font-family="Arial" font-size="24px" font-style="normal" font-weight="normal" text-decoration="none" x="200" y="210">UNREGISTERED</text><text fill="#eeeeee" stroke="none" font-family="Arial" font-size="24px" font-style="normal" font-weight="normal" text-decoration="none" x="200" y="240">UNREGISTERED</text><text fill="#eeeeee" stroke="none" font-family="Arial" font-size="24px" font-style="normal" font-weight="normal" text-decoration="none" x="200" y="270">UNREGISTERED</text><text fill="#eeeeee" stroke="none" font-family="Arial" font-size="24px" font-style="normal" font-weight="normal" text-decoration="none" x="200" y="300">UNREGISTERED</text><text fill="#eeeeee" stroke="none" font-family="Arial" font-size="24px" font-style="normal" font-weight="normal" text-decoration="none" x="200" y="330">UNREGISTERED</text><text fill="#eeeeee" stroke="none" font-family="Arial" font-size="24px" font-style="normal" font-weight="normal" text-decoration="none" x="200" y="360">UNREGISTERED</text><text fill="#eeeeee" stroke="none" font-family="Arial" font-size="24px" font-style="normal" font-weight="normal" text-decoration="none" x="400" y="0">UNREGISTERED</text><text fill="#eeeeee" stroke="none" font-family="Arial" font-size="24px" font-style="normal" font-weight="normal" text-decoration="none" x="400" y="30">UNREGISTERED</text><text fill="#eeeeee" stroke="none" font-family="Arial" font-size="24px" font-style="normal" font-weight="normal" text-decoration="none" x="400" y="60">UNREGISTERED</text><text fill="#eeeeee" stroke="none" font-family="Arial" font-size="24px" font-style="normal" font-weight="normal" text-decoration="none" x="400" y="90">UNREGISTERED</text><text fill="#eeeeee" stroke="none" font-family="Arial" font-size="24px" font-style="normal" font-weight="normal" text-decoration="none" x="400" y="120">UNREGISTERED</text><text fill="#eeeeee" stroke="none" font-family="Arial" font-size="24px" font-style="normal" font-weight="normal" text-decoration="none" x="400" y="150">UNREGISTERED</text><text fill="#eeeeee" stroke="none" font-family="Arial" font-size="24px" font-style="normal" font-weight="normal" text-decoration="none" x="400" y="180">UNREGISTERED</text><text fill="#eeeeee" stroke="none" font-family="Arial" font-size="24px" font-style="normal" font-weight="normal" text-decoration="none" x="400" y="210">UNREGISTERED</text><text fill="#eeeeee" stroke="none" font-family="Arial" font-size="24px" font-style="normal" font-weight="normal" text-decoration="none" x="400" y="240">UNREGISTERED</text><text fill="#eeeeee" stroke="none" font-family="Arial" font-size="24px" font-style="normal" font-weight="normal" text-decoration="none" x="400" y="270">UNREGISTERED</text><text fill="#eeeeee" stroke="none" font-family="Arial" font-size="24px" font-style="normal" font-weight="normal" text-decoration="none" x="400" y="300">UNREGISTERED</text><text fill="#eeeeee" stroke="none" font-family="Arial" font-size="24px" font-style="normal" font-weight="normal" text-decoration="none" x="400" y="330">UNREGISTERED</text><text fill="#eeeeee" stroke="none" font-family="Arial" font-size="24px" font-style="normal" font-weight="normal" text-decoration="none" x="400" y="360">UNREGISTERED</text><g transform="translate(-174,-94) scale(1,1)"><path fill="#C0C0C0" stroke="none" d="M 201 111 L 240 111 Q 250 111 250 121 L 250 141 Q 250 151 240 151 L 201 151 Q 191 151 191 141 L 191 121 Q 191 111 201 111 Z" opacity="0.2"/></g><g transform="translate(-174,-94) scale(1,1)"><path fill="#ffffff" stroke="none" d="M 194 104 L 233 104 Q 243 104 243 114 L 243 134 Q 243 144 233 144 L 194 144 Q 184 144 184 134 L 184 114 Q 184 104 194 104 Z"/></g><g transform="translate(-174,-94) scale(1,1)"><path fill="none" stroke="#000000" d="M 194 104 L 233 104 Q 243 104 243 114 L 243 134 Q 243 144 233 144 L 194 144 Q 184 144 184 134 L 184 114 Q 184 104 194 104 Z" stroke-miterlimit="10"/></g><g transform="translate(-174,-94) scale(1,1)"><g><path fill="none" stroke="none"/><text fill="#000000" stroke="none" font-family="Arial" font-size="13px" font-style="normal" font-weight="bold" text-decoration="none" x="191.819580078125" y="123.5">Action1</text></g></g><g transform="translate(-174,-94) scale(1,1)"><path fill="#C0C0C0" stroke="none" d="M 465 111 L 504 111 Q 514 111 514 121 L 514 141 Q 514 151 504 151 L 465 151 Q 455 151 455 141 L 455 121 Q 455 111 465 111 Z" opacity="0.2"/></g><g transform="translate(-174,-94) scale(1,1)"><path fill="#ffffff" stroke="none" d="M 458 104 L 497 104 Q 507 104 507 114 L 507 134 Q 507 144 497 144 L 458 144 Q 448 144 448 134 L 448 114 Q 448 104 458 104 Z"/></g><g transform="translate(-174,-94) scale(1,1)"><path fill="none" stroke="#000000" d="M 458 104 L 497 104 Q 507 104 507 114 L 507 134 Q 507 144 497 144 L 458 144 Q 448 144 448 134 L 448 114 Q 448 104 458 104 Z" stroke-miterlimit="10"/></g><g transform="translate(-174,-94) scale(1,1)"><g><path fill="none" stroke="none"/><text fill="#000000" stroke="none" font-family="Arial" font-size="13px" font-style="normal" font-weight="bold" text-decoration="none" x="455.819580078125" y="123.5">Action2</text></g></g><g transform="translate(-174,-94) scale(1,1)"><path fill="#C0C0C0" stroke="none" d="M 385 263 L 424 263 Q 434 263 434 273 L 434 293 Q 434 303 424 303 L 385 303 Q 375 303 375 293 L 375 273 Q 375 263 385 263 Z" opacity="0.2"/></g><g transform="translate(-174,-94) scale(1,1)"><path fill="#ffffff" stroke="none" d="M 378 256 L 417 256 Q 427 256 427 266 L 427 286 Q 427 296 417 296 L 378 296 Q 368 296 368 286 L 368 266 Q 368 256 378 256 Z"/></g><g transform="translate(-174,-94) scale(1,1)"><path fill="none" stroke="#000000" d="M 378 256 L 417 256 Q 427 256 427 266 L 427 286 Q 427 296 417 296 L 378 296 Q 368 296 368 286 L 368 266 Q 368 256 378 256 Z" stroke-miterlimit="10"/></g><g transform="translate(-174,-94) scale(1,1)"><g><path fill="none" stroke="none"/><text fill="#000000" stroke="none" font-family="Arial" font-size="13px" font-style="normal" font-weight="bold" text-decoration="none" x="375.819580078125" y="275.5">Action3</text></g></g><g transform="translate(-174,-94) scale(1,1)"><path fill="#C0C0C0" stroke="none" d="M 354 191 L 417 191 Q 420 191 420 194 L 420 193 Q 420 196 417 196 L 354 196 Q 351 196 351 193 L 351 194 Q 351 191 354 191 Z" opacity="0.2"/></g><g transform="translate(-174,-94) scale(1,1)"><path fill="#000000" stroke="none" d="M 347 184 L 410 184 Q 413 184 413 187 L 413 187 Q 413 190 410 190 L 347 190 Q 344 190 344 187 L 344 187 Q 344 184 347 184 Z"/></g><g transform="translate(-174,-94) scale(1,1)"><path fill="none" stroke="#000000" d="M 244 136 L 370 183" stroke-miterlimit="10"/></g><g transform="translate(-174,-94) scale(1,1)"><path fill="none" stroke="#000000" d="M 359.00699680578583 183.3922763974514 L 370 183 L 361.9493915950285 175.50415419650312" stroke-miterlimit="10"/></g><g transform="translate(-174,-94) scale(1,1)"><path fill="none" stroke="#000000" d="M 447 143 L 383 183" stroke-miterlimit="10"/></g><g transform="translate(-174,-94) scale(1,1)"><path fill="none" stroke="#000000" d="M 389.38689109480737 174.04412918008137 L 383 183 L 393.84897099203346 181.18345701564309" stroke-miterlimit="10"/></g><g transform="translate(-174,-94) scale(1,1)"><path fill="none" stroke="#000000" d="M 379 190 L 393 255" stroke-miterlimit="10"/></g><g transform="translate(-174,-94) scale(1,1)"><path fill="none" stroke="#000000" d="M 386.7450391950647 245.95149375152323 L 393 255 L 394.97533492668094 244.1788146708674" stroke-miterlimit="10"/></g><g transform="translate(-174,-94) scale(1,1)"><path fill="#C0C0C0" stroke="none" d="M 591 151 L 659.947265625 151 L 659.947265625 191 L 591 191 L 601.25 171.5" opacity="0.2"/></g><g transform="translate(-174,-94) scale(1,1)"><path fill="#ffffff" stroke="none" d="M 584 144 L 652.947265625 144 L 652.947265625 184 L 584 184 L 594.25 164.5"/></g><g transform="translate(-174,-94) scale(1,1)"><path fill="none" stroke="#000000" d="M 584 144 L 652.947265625 144 L 652.947265625 184 L 584 184 L 594.25 164.5 L 584 144" stroke-miterlimit="10"/></g><g transform="translate(-174,-94) scale(1,1)"><g><path fill="none" stroke="none"/><text fill="#000000" stroke="none" font-family="Arial" font-size="13px" font-style="normal" font-weight="bold" text-decoration="none" x="591.378662109375" y="163.5">switch on</text></g></g><g transform="translate(-174,-94) scale(1,1)"><path fill="#C0C0C0" stroke="none" d="M 586 231 L 651 231 Q 654 231 654 234 L 654 233 Q 654 236 651 236 L 586 236 Q 583 236 583 233 L 583 234 Q 583 231 586 231 Z" opacity="0.2"/></g><g transform="translate(-174,-94) scale(1,1)"><path fill="#000000" stroke="none" d="M 579 224 L 644 224 Q 647 224 647 227 L 647 227 Q 647 230 644 230 L 579 230 Q 576 230 576 227 L 576 227 Q 576 224 579 224 Z"/></g><g transform="translate(-174,-94) scale(1,1)"><path fill="#C0C0C0" stroke="none" d="M 673 279 L 741.49169921875 279 Q 751.49169921875 279 751.49169921875 289 L 751.49169921875 309 Q 751.49169921875 319 741.49169921875 319 L 673 319 Q 663 319 663 309 L 663 289 Q 663 279 673 279 Z" opacity="0.2"/></g><g transform="translate(-174,-94) scale(1,1)"><path fill="#ffffff" stroke="none" d="M 666 272 L 734.49169921875 272 Q 744.49169921875 272 744.49169921875 282 L 744.49169921875 302 Q 744.49169921875 312 734.49169921875 312 L 666 312 Q 656 312 656 302 L 656 282 Q 656 272 666 272 Z"/></g><g transform="translate(-174,-94) scale(1,1)"><path fill="none" stroke="#000000" d="M 666 272 L 734.49169921875 272 Q 744.49169921875 272 744.49169921875 282 L 744.49169921875 302 Q 744.49169921875 312 734.49169921875 312 L 666 312 Q 656 312 656 302 L 656 282 Q 656 272 666 272 Z" stroke-miterlimit="10"/></g><g transform="translate(-174,-94) scale(1,1)"><g><path fill="none" stroke="none"/><text fill="#000000" stroke="none" font-family="Arial" font-size="13px" font-style="normal" font-weight="bold" text-decoration="none" x="663.029541015625" y="291.5">calentar café</text></g></g><g transform="translate(-174,-94) scale(1,1)"><path fill="#C0C0C0" stroke="none" d="M 687 387.5 C 687 380.59644 692.59644 375 699.5 375 C 706.40356 375 712 380.59644 712 387.5 C 712 394.40356 706.40356 400 699.5 400 C 692.59644 400 687 394.40356 687 387.5 Z" opacity="0.2"/></g><g transform="translate(-174,-94) scale(1,1)"><path fill="#ffffff" stroke="none" d="M 680 380.5 C 680 373.59644 685.59644 368 692.5 368 C 699.40356 368 705 373.59644 705 380.5 C 705 387.40356 699.40356 393 692.5 393 C 685.59644 393 680 387.40356 680 380.5 Z"/></g><g transform="translate(-174,-94) scale(1,1)"><path fill="none" stroke="#000000" d="M 680 380.5 C 680 373.59644 685.59644 368 692.5 368 C 699.40356 368 705 373.59644 705 380.5 C 705 387.40356 699.40356 393 692.5 393 C 685.59644 393 680 387.40356 680 380.5 Z" stroke-miterlimit="10"/></g><g transform="translate(-174,-94) scale(1,1)"><path fill="none" stroke="#000000" d="M 683 371 L 701 389" stroke-miterlimit="10"/></g><g transform="translate(-174,-94) scale(1,1)"><path fill="none" stroke="#000000" d="M 701 371 L 683 389" stroke-miterlimit="10"/></g><g transform="translate(-174,-94) scale(1,1)"><path fill="none" stroke="#000000" d="M 698 313 L 693 367" stroke-miterlimit="10"/></g><g transform="translate(-174,-94) scale(1,1)"><path fill="none" stroke="#000000" d="M 689.7453923885577 356.4925012826295 L 693 367 L 698.1285684842094 357.2687212914862" stroke-miterlimit="10"/></g><g transform="translate(-174,-94) scale(1,1)"><path fill="#C0C0C0" stroke="none" d="M 287 464.5 L 298.5 455 L 309 464.5 L 298.5 473 L 287 464.5" opacity="0.2"/></g><g transform="translate(-174,-94) scale(1,1)"><path fill="#ffffff" stroke="none" d="M 280 457 L 291 448 L 302 457 L 291 466 L 280 457"/></g><g transform="translate(-174,-94) scale(1,1)"><path fill="none" stroke="#000000" d="M 280 457 L 291 448 L 302 457 L 291 466 L 280 457 L 280 457" stroke-miterlimit="10"/></g><g transform="translate(-174,-94) scale(1,1)"><path fill="none" stroke="#000000" d="M 605 230 L 303 448" stroke-miterlimit="10"/></g><g transform="translate(-174,-94) scale(1,1)"><path fill="none" stroke="#000000" d="M 308.77630062163456 438.63867791770286 L 303 448 L 313.7039156649936 445.4650070144662" stroke-miterlimit="10"/></g><g transform="translate(-174,-94) scale(1,1)"><path fill="none" stroke="#000000" d="M 294 447 L 377 190" stroke-miterlimit="10"/></g><g transform="translate(-174,-94) scale(1,1)"><path fill="none" stroke="#000000" d="M 377.88252575755496 200.96454049594655 L 377 190 L 369.8709390104606 198.37714088501724" stroke-miterlimit="10"/></g></g></svg>