<svg version="1.1" xmlns="http://www.w3.org/2000/svg" xmlns:xlink="http://www.w3.org/1999/xlink" width="360.5380859375" height="541"><defs/><g><text fill="#eeeeee" stroke="none" font-family="Arial" font-size="24px" font-style="normal" font-weight="normal" text-decoration="none" x="0" y="0">UNREGISTERED</text><text fill="#eeeeee" stroke="none" font-family="Arial" font-size="24px" font-style="normal" font-weight="normal" text-decoration="none" x="0" y="30">UNREGISTERED</text><text fill="#eeeeee" stroke="none" font-family="Arial" font-size="24px" font-style="normal" font-weight="normal" text-decoration="none" x="0" y="60">UNREGISTERED</text><text fill="#eeeeee" stroke="none" font-family="Arial" font-size="24px" font-style="normal" font-weight="normal" text-decoration="none" x="0" y="90">UNREGISTERED</text><text fill="#eeeeee" stroke="none" font-family="Arial" font-size="24px" font-style="normal" font-weight="normal" text-decoration="none" x="0" y="120">UNREGISTERED</text><text fill="#eeeeee" stroke="none" font-family="Arial" font-size="24px" font-style="normal" font-weight="normal" text-decoration="none" x="0" y="150">UNREGISTERED</text><text fill="#eeeeee" stroke="none" font-family="Arial" font-size="24px" font-style="normal" font-weight="normal" text-decoration="none" x="0" y="180">UNREGISTERED</text><text fill="#eeeeee" stroke="none" font-family="Arial" font-size="24px" font-style="normal" font-weight="normal" text-decoration="none" x="0" y="210">UNREGISTERED</text><text fill="#eeeeee" stroke="none" font-family="Arial" font-size="24px" font-style="normal" font-weight="normal" text-decoration="none" x="0" y="240">UNREGISTERED</text><text fill="#eeeeee" stroke="none" font-family="Arial" font-size="24px" font-style="normal" font-weight="normal" text-decoration="none" x="0" y="270">UNREGISTERED</text><text fill="#eeeeee" stroke="none" font-family="Arial" font-size="24px" font-style="normal" font-weight="normal" text-decoration="none" x="0" y="300">UNREGISTERED</text><text fill="#eeeeee" stroke="none" font-family="Arial" font-size="24px" font-style="normal" font-weight="normal" text-decoration="none" x="0" y="330">UNREGISTERED</text><text fill="#eeeeee" stroke="none" font-family="Arial" font-size="24px" font-style="normal" font-weight="normal" text-decoration="none" x="0" y="360">UNREGISTERED</text><text fill="#eeeeee" stroke="none" font-family="Arial" font-size="24px" font-style="normal" font-weight="normal" text-decoration="none" x="0" y="390">UNREGISTERED</text><text fill="#eeeeee" stroke="none" font-family="Arial" font-size="24px" font-style="normal" font-weight="normal" text-decoration="none" x="0" y="420">UNREGISTERED</text><text fill="#eeeeee" stroke="none" font-family="Arial" font-size="24px" font-style="normal" font-weight="normal" text-decoration="none" x="0" y="450">UNREGISTERED</text><text fill="#eeeeee" stroke="none" font-family="Arial" font-size="24px" font-style="normal" font-weight="normal" text-decoration="none" x="0" y="480">UNREGISTERED</text><text fill="#eeeeee" stroke="none" font-family="Arial" font-size="24px" font-style="normal" font-weight="normal" text-decoration="none" x="0" y="510">UNREGISTERED</text><text fill="#eeeeee" stroke="none" font-family="Arial" font-size="24px" font-style="normal" font-weight="normal" text-decoration="none" x="0" y="540">UNREGISTERED</text><text fill="#eeeeee" stroke="none" font-family="Arial" font-size="24px" font-style="normal" font-weight="normal" text-decoration="none" x="200" y="0">UNREGISTERED</text><text fill="#eeeeee" stroke="none" font-family="Arial" font-size="24px" font-style="normal" font-weight="normal" text-decoration="none" x="200" y="30">UNREGISTERED</text><text fill="#eeeeee" stroke="none" font-family="Arial" font-size="24px" font-style="normal" font-weight="normal" text-decoration="none" x="200" y="60">UNREGISTERED</text><text fill="#eeeeee" stroke="none" font-family="Arial" font-size="24px" font-style="normal" font-weight="normal" text-decoration="none" x="200" y="90">UNREGISTERED</text><text fill="#eeeeee" stroke="none" font-family="Arial" font-size="24px" font-style="normal" font-weight="normal" text-decoration="none" x="200" y="120">UNREGISTERED</text><text fill="#eeeeee" stroke="none" font-family="Arial" font-size="24px" font-style="normal" font-weight="normal" text-decoration="none" x="200" y="150">UNREGISTERED</text><text fill="#eeeeee" stroke="none" font-family="Arial" font-size="24px" font-style="normal" font-weight="normal" text-decoration="none" x="200" y="180">UNREGISTERED</text><text fill="#eeeeee" stroke="none" font-family="Arial" font-size="24px" font-style="normal" font-weight="normal" text-decoration="none" x="200" y="210">UNREGISTERED</text><text fill="#eeeeee" stroke="none" font-family="Arial" font-size="24px" font-style="normal" font-weight="normal" text-decoration="none" x="200" y="240">UNREGISTERED</text><text fill="#eeeeee" stroke="none" font-family="Arial" font-size="24px" font-style="normal" font-weight="normal" text-decoration="none" x="200" y="270">UNREGISTERED</text><text fill="#eeeeee" stroke="none" font-family="Arial" font-size="24px" font-style="normal" font-weight="normal" text-decoration="none" x="200" y="300">UNREGISTERED</text><text fill="#eeeeee" stroke="none" font-family="Arial" font-size="24px" font-style="normal" font-weight="normal" text-decoration="none" x="200" y="330">UNREGISTERED</text><text fill="#eeeeee" stroke="none" font-family="Arial" font-size="24px" font-style="normal" font-weight="normal" text-decoration="none" x="200" y="360">UNREGISTERED</text><text fill="#eeeeee" stroke="none" font-family="Arial" font-size="24px" font-style="normal" font-weight="normal" text-decoration="none" x="200" y="390">UNREGISTERED</text><text fill="#eeeeee" stroke="none" font-family="Arial" font-size="24px" font-style="normal" font-weight="normal" text-decoration="none" x="200" y="420">UNREGISTERED</text><text fill="#eeeeee" stroke="none" font-family="Arial" font-size="24px" font-style="normal" font-weight="normal" text-decoration="none" x="200" y="450">UNREGISTERED</text><text fill="#eeeeee" stroke="none" font-family="Arial" font-size="24px" font-style="normal" font-weight="normal" text-decoration="none" x="200" y="480">UNREGISTERED</text><text fill="#eeeeee" stroke="none" font-family="Arial" font-size="24px" font-style="normal" font-weight="normal" text-decoration="none" x="200" y="510">UNREGISTERED</text><text fill="#eeeeee" stroke="none" font-family="Arial" font-size="24px" font-style="normal" font-weight="normal" text-decoration="none" x="200" y="540">UNREGISTERED</text><g transform="translate(-134,-134) scale(1,1)"><path fill="#C0C0C0" stroke="none" d="M 161 247 L 233.8017578125 247 Q 243.8017578125 247 243.8017578125 257 L 243.8017578125 277 Q 243.8017578125 287 233.8017578125 287 L 161 287 Q 151 287 151 277 L 151 257 Q 151 247 161 247 Z" opacity="0.2"/></g><g transform="translate(-134,-134) scale(1,1)"><path fill="#ffffff" stroke="none" d="M 154 240 L 226.8017578125 240 Q 236.8017578125 240 236.8017578125 250 L 236.8017578125 270 Q 236.8017578125 280 226.8017578125 280 L 154 280 Q 144 280 144 270 L 144 250 Q 144 240 154 240 Z"/></g><g transform="translate(-134,-134) scale(1,1)"><path fill="none" stroke="#000000" d="M 154 240 L 226.8017578125 240 Q 236.8017578125 240 236.8017578125 250 L 236.8017578125 270 Q 236.8017578125 280 226.8017578125 280 L 154 280 Q 144 280 144 270 L 144 250 Q 144 240 154 240 Z" stroke-miterlimit="10"/></g><g transform="translate(-134,-134) scale(1,1)"><g><path fill="none" stroke="none"/><text fill="#000000" stroke="none" font-family="Arial" font-size="13px" font-style="normal" font-weight="bold" text-decoration="none" x="151.010498046875" y="259.5">Agregar agua</text></g></g><g transform="translate(-134,-134) scale(1,1)"><path fill="#C0C0C0" stroke="none" d="M 289 407 L 346.61181640625 407 Q 356.61181640625 407 356.61181640625 417 L 356.61181640625 437 Q 356.61181640625 447 346.61181640625 447 L 289 447 Q 279 447 279 437 L 279 417 Q 279 407 289 407 Z" opacity="0.2"/></g><g transform="translate(-134,-134) scale(1,1)"><path fill="#ffffff" stroke="none" d="M 282 400 L 339.61181640625 400 Q 349.61181640625 400 349.61181640625 410 L 349.61181640625 430 Q 349.61181640625 440 339.61181640625 440 L 282 440 Q 272 440 272 430 L 272 410 Q 272 400 282 400 Z"/></g><g transform="translate(-134,-134) scale(1,1)"><path fill="none" stroke="#000000" d="M 282 400 L 339.61181640625 400 Q 349.61181640625 400 349.61181640625 410 L 349.61181640625 430 Q 349.61181640625 440 339.61181640625 440 L 282 440 Q 272 440 272 430 L 272 410 Q 272 400 282 400 Z" stroke-miterlimit="10"/></g><g transform="translate(-134,-134) scale(1,1)"><g><path fill="none" stroke="none"/><text fill="#000000" stroke="none" font-family="Arial" font-size="13px" font-style="normal" font-weight="bold" text-decoration="none" x="279.00732421875" y="419.5">on-prender</text></g></g><g transform="translate(-134,-134) scale(1,1)"><path fill="#C0C0C0" stroke="none" d="M 273 487 L 344.3798828125 487 Q 354.3798828125 487 354.3798828125 497 L 354.3798828125 517 Q 354.3798828125 527 344.3798828125 527 L 273 527 Q 263 527 263 517 L 263 497 Q 263 487 273 487 Z" opacity="0.2"/></g><g transform="translate(-134,-134) scale(1,1)"><path fill="#ffffff" stroke="none" d="M 266 480 L 337.3798828125 480 Q 347.3798828125 480 347.3798828125 490 L 347.3798828125 510 Q 347.3798828125 520 337.3798828125 520 L 266 520 Q 256 520 256 510 L 256 490 Q 256 480 266 480 Z"/></g><g transform="translate(-134,-134) scale(1,1)"><path fill="none" stroke="#000000" d="M 266 480 L 337.3798828125 480 Q 347.3798828125 480 347.3798828125 490 L 347.3798828125 510 Q 347.3798828125 520 337.3798828125 520 L 266 520 Q 256 520 256 510 L 256 490 Q 256 480 266 480 Z" stroke-miterlimit="10"/></g><g transform="translate(-134,-134) scale(1,1)"><g><path fill="none" stroke="none"/><text fill="#000000" stroke="none" font-family="Arial" font-size="13px" font-style="normal" font-weight="bold" text-decoration="none" x="263.029541015625" y="499.5">preparar café</text></g></g><g transform="translate(-134,-134) scale(1,1)"><path fill="#C0C0C0" stroke="none" d="M 297 567 L 352.47265625 567 Q 362.47265625 567 362.47265625 577 L 362.47265625 597 Q 362.47265625 607 352.47265625 607 L 297 607 Q 287 607 287 597 L 287 577 Q 287 567 297 567 Z" opacity="0.2"/></g><g transform="translate(-134,-134) scale(1,1)"><path fill="#ffffff" stroke="none" d="M 290 560 L 345.47265625 560 Q 355.47265625 560 355.47265625 570 L 355.47265625 590 Q 355.47265625 600 345.47265625 600 L 290 600 Q 280 600 280 590 L 280 570 Q 280 560 290 560 Z"/></g><g transform="translate(-134,-134) scale(1,1)"><path fill="none" stroke="#000000" d="M 290 560 L 345.47265625 560 Q 355.47265625 560 355.47265625 570 L 355.47265625 590 Q 355.47265625 600 345.47265625 600 L 290 600 Q 280 600 280 590 L 280 570 Q 280 560 290 560 Z" stroke-miterlimit="10"/></g><g transform="translate(-134,-134) scale(1,1)"><g><path fill="none" stroke="none"/><text fill="#000000" stroke="none" font-family="Arial" font-size="13px" font-style="normal" font-weight="bold" text-decoration="none" x="289.200439453125" y="579.5">vertir cafe</text></g></g><g transform="translate(-134,-134) scale(1,1)"><path fill="#C0C0C0" stroke="none" d="M 369 239 L 433.1181640625 239 Q 443.1181640625 239 443.1181640625 249 L 443.1181640625 269 Q 443.1181640625 279 433.1181640625 279 L 369 279 Q 359 279 359 269 L 359 249 Q 359 239 369 239 Z" opacity="0.2"/></g><g transform="translate(-134,-134) scale(1,1)"><path fill="#ffffff" stroke="none" d="M 362 232 L 426.1181640625 232 Q 436.1181640625 232 436.1181640625 242 L 436.1181640625 262 Q 436.1181640625 272 426.1181640625 272 L 362 272 Q 352 272 352 262 L 352 242 Q 352 232 362 232 Z"/></g><g transform="translate(-134,-134) scale(1,1)"><path fill="none" stroke="#000000" d="M 362 232 L 426.1181640625 232 Q 436.1181640625 232 436.1181640625 242 L 436.1181640625 262 Q 436.1181640625 272 426.1181640625 272 L 362 272 Q 352 272 352 262 L 352 242 Q 352 232 362 232 Z" stroke-miterlimit="10"/></g><g transform="translate(-134,-134) scale(1,1)"><g><path fill="none" stroke="none"/><text fill="#000000" stroke="none" font-family="Arial" font-size="13px" font-style="normal" font-weight="bold" text-decoration="none" x="360.832275390625" y="251.5">limpiar filtro</text></g></g><g transform="translate(-134,-134) scale(1,1)"><path fill="#C0C0C0" stroke="none" d="M 369 295 L 481.5380859375 295 Q 491.5380859375 295 491.5380859375 305 L 491.5380859375 325 Q 491.5380859375 335 481.5380859375 335 L 369 335 Q 359 335 359 325 L 359 305 Q 359 295 369 295 Z" opacity="0.2"/></g><g transform="translate(-134,-134) scale(1,1)"><path fill="#ffffff" stroke="none" d="M 362 288 L 474.5380859375 288 Q 484.5380859375 288 484.5380859375 298 L 484.5380859375 318 Q 484.5380859375 328 474.5380859375 328 L 362 328 Q 352 328 352 318 L 352 298 Q 352 288 362 288 Z"/></g><g transform="translate(-134,-134) scale(1,1)"><path fill="none" stroke="#000000" d="M 362 288 L 474.5380859375 288 Q 484.5380859375 288 484.5380859375 298 L 484.5380859375 318 Q 484.5380859375 328 474.5380859375 328 L 362 328 Q 352 328 352 318 L 352 298 Q 352 288 362 288 Z" stroke-miterlimit="10"/></g><g transform="translate(-134,-134) scale(1,1)"><g><path fill="none" stroke="none"/><text fill="#000000" stroke="none" font-family="Arial" font-size="13px" font-style="normal" font-weight="bold" text-decoration="none" x="360.819580078125" y="307.5">agregar café molido</text></g></g><g transform="translate(-134,-134) scale(1,1)"><path fill="#C0C0C0" stroke="none" d="M 290 375 L 353 375 Q 356 375 356 378 L 356 377 Q 356 380 353 380 L 290 380 Q 287 380 287 377 L 287 378 Q 287 375 290 375 Z" opacity="0.2"/></g><g transform="translate(-134,-134) scale(1,1)"><path fill="#000000" stroke="none" d="M 283 368 L 346 368 Q 349 368 349 371 L 349 371 Q 349 374 346 374 L 283 374 Q 280 374 280 371 L 280 371 Q 280 368 283 368 Z"/></g><g transform="translate(-134,-134) scale(1,1)"><path fill="none" stroke="#000000" d="M 214 281 L 311 367" stroke-miterlimit="10"/></g><g transform="translate(-134,-134) scale(1,1)"><path fill="none" stroke="#000000" d="M 300.60305981599384 363.4078370290035 L 311 367 L 306.18829588821717 357.1082102963795" stroke-miterlimit="10"/></g><g transform="translate(-134,-134) scale(1,1)"><path fill="none" stroke="#000000" d="M 403 273 L 409 287" stroke-miterlimit="10"/></g><g transform="translate(-134,-134) scale(1,1)"><path fill="none" stroke="#000000" d="M 401.1275689241817 279.31723819473166 L 409 287 L 408.8658835726114 276.00081763111893" stroke-miterlimit="10"/></g><g transform="translate(-134,-134) scale(1,1)"><path fill="none" stroke="#000000" d="M 383 329 L 319 367" stroke-miterlimit="10"/></g><g transform="translate(-134,-134) scale(1,1)"><path fill="none" stroke="#000000" d="M 325.5893022356875 358.19198682750965 L 319 367 L 329.88754613719067 365.43113445109395" stroke-miterlimit="10"/></g><g transform="translate(-134,-134) scale(1,1)"><path fill="none" stroke="#000000" d="M 314 374 L 312 399" stroke-miterlimit="10"/></g><g transform="translate(-134,-134) scale(1,1)"><path fill="none" stroke="#000000" d="M 308.61431315104414 388.534001501968 L 312 399 L 317.00653637997584 389.20537936028256" stroke-miterlimit="10"/></g><g transform="translate(-134,-134) scale(1,1)"><path fill="#C0C0C0" stroke="none" d="M 183 160.5 C 183 155.2532944 187.2532944 151 192.5 151 C 197.7467056 151 202 155.2532944 202 160.5 C 202 165.7467056 197.7467056 170 192.5 170 C 187.2532944 170 183 165.7467056 183 160.5 Z" opacity="0.2"/></g><g transform="translate(-134,-134) scale(1,1)"><path fill="#000000" stroke="none" d="M 176 153.5 C 176 148.2532944 180.2532944 144 185.5 144 C 190.7467056 144 195 148.2532944 195 153.5 C 195 158.7467056 190.7467056 163 185.5 163 C 180.2532944 163 176 158.7467056 176 153.5 Z"/></g><g transform="translate(-134,-134) scale(1,1)"><path fill="#C0C0C0" stroke="none" d="M 407 168.5 C 407 163.2532944 411.2532944 159 416.5 159 C 421.7467056 159 426 163.2532944 426 168.5 C 426 173.7467056 421.7467056 178 416.5 178 C 411.2532944 178 407 173.7467056 407 168.5 Z" opacity="0.2"/></g><g transform="translate(-134,-134) scale(1,1)"><path fill="#000000" stroke="none" d="M 400 161.5 C 400 156.2532944 404.2532944 152 409.5 152 C 414.7467056 152 419 156.2532944 419 161.5 C 419 166.7467056 414.7467056 171 409.5 171 C 404.2532944 171 400 166.7467056 400 161.5 Z"/></g><g transform="translate(-134,-134) scale(1,1)"><path fill="none" stroke="#000000" d="M 186 164 L 189 239" stroke-miterlimit="10"/></g><g transform="translate(-134,-134) scale(1,1)"><path fill="none" stroke="#000000" d="M 184.3876636439958 229.01369170618682 L 189 239 L 192.79997199913095 228.67719937198143" stroke-miterlimit="10"/></g><g transform="translate(-134,-134) scale(1,1)"><path fill="none" stroke="#000000" d="M 407 172 L 397 231" stroke-miterlimit="10"/></g><g transform="translate(-134,-134) scale(1,1)"><path fill="none" stroke="#000000" d="M 394.5479407439129 220.27678194735194 L 397 231 L 402.848592473319 221.6836720709801" stroke-miterlimit="10"/></g><g transform="translate(-134,-134) scale(1,1)"><path fill="none" stroke="#000000" d="M 308 441 L 303 479" stroke-miterlimit="10"/></g><g transform="translate(-134,-134) scale(1,1)"><path fill="none" stroke="#000000" d="M 300.15222233360817 468.37502177118466 L 303 479 L 308.49931125633753 469.473322945228" stroke-miterlimit="10"/></g><g transform="translate(-134,-134) scale(1,1)"><path fill="none" stroke="#000000" d="M 305 521 L 313 559" stroke-miterlimit="10"/></g><g transform="translate(-134,-134) scale(1,1)"><path fill="none" stroke="#000000" d="M 306.7871597687804 549.9225214810864 L 313 559 L 315.02560515887507 548.188111925277" stroke-miterlimit="10"/></g><g transform="translate(-134,-134) scale(1,1)"><path fill="#C0C0C0" stroke="none" d="M 311 659.5 C 311 652.59644 316.59644 647 323.5 647 C 330.40356 647 336 652.59644 336 659.5 C 336 666.40356 330.40356 672 323.5 672 C 316.59644 672 311 666.40356 311 659.5 Z" opacity="0.2"/></g><g transform="translate(-134,-134) scale(1,1)"><path fill="none" stroke="#000000" d="M 304 652.5 C 304 645.59644 309.59644 640 316.5 640 C 323.40356 640 329 645.59644 329 652.5 C 329 659.40356 323.40356 665 316.5 665 C 309.59644 665 304 659.40356 304 652.5 Z" stroke-miterlimit="10"/></g><g transform="translate(-134,-134) scale(1,1)"><path fill="#000000" stroke="none" d="M 309 652.5 C 309 648.357864 312.357864 645 316.5 645 C 320.642136 645 324 648.357864 324 652.5 C 324 656.642136 320.642136 660 316.5 660 C 312.357864 660 309 656.642136 309 652.5 Z"/></g><g transform="translate(-134,-134) scale(1,1)"><path fill="none" stroke="#000000" d="M 317 601 L 316 639" stroke-miterlimit="10"/></g><g transform="translate(-134,-134) scale(1,1)"><path fill="none" stroke="#000000" d="M 312.0592853332588 628.7301038021151 L 316 639 L 320.4754071800324 628.9515806928197" stroke-miterlimit="10"/></g></g></svg>