<svg version="1.1" xmlns="http://www.w3.org/2000/svg" xmlns:xlink="http://www.w3.org/1999/xlink" width="620" height="268"><defs/><g><text fill="#eeeeee" stroke="none" font-family="Arial" font-size="24px" font-style="normal" font-weight="normal" text-decoration="none" x="0" y="0">UNREGISTERED</text><text fill="#eeeeee" stroke="none" font-family="Arial" font-size="24px" font-style="normal" font-weight="normal" text-decoration="none" x="0" y="30">UNREGISTERED</text><text fill="#eeeeee" stroke="none" font-family="Arial" font-size="24px" font-style="normal" font-weight="normal" text-decoration="none" x="0" y="60">UNREGISTERED</text><text fill="#eeeeee" stroke="none" font-family="Arial" font-size="24px" font-style="normal" font-weight="normal" text-decoration="none" x="0" y="90">UNREGISTERED</text><text fill="#eeeeee" stroke="none" font-family="Arial" font-size="24px" font-style="normal" font-weight="normal" text-decoration="none" x="0" y="120">UNREGISTERED</text><text fill="#eeeeee" stroke="none" font-family="Arial" font-size="24px" font-style="normal" font-weight="normal" text-decoration="none" x="0" y="150">UNREGISTERED</text><text fill="#eeeeee" stroke="none" font-family="Arial" font-size="24px" font-style="normal" font-weight="normal" text-decoration="none" x="0" y="180">UNREGISTERED</text><text fill="#eeeeee" stroke="none" font-family="Arial" font-size="24px" font-style="normal" font-weight="normal" text-decoration="none" x="0" y="210">UNREGISTERED</text><text fill="#eeeeee" stroke="none" font-family="Arial" font-size="24px" font-style="normal" font-weight="normal" text-decoration="none" x="0" y="240">UNREGISTERED</text><text fill="#eeeeee" stroke="none" font-family="Arial" font-size="24px" font-style="normal" font-weight="normal" text-decoration="none" x="200" y="0">UNREGISTERED</text><text fill="#eeeeee" stroke="none" font-family="Arial" font-size="24px" font-style="normal" font-weight="normal" text-decoration="none" x="200" y="30">UNREGISTERED</text><text fill="#eeeeee" stroke="none" font-family="Arial" font-size="24px" font-style="normal" font-weight="normal" text-decoration="none" x="200" y="60">UNREGISTERED</text><text fill="#eeeeee" stroke="none" font-family="Arial" font-size="24px" font-style="normal" font-weight="normal" text-decoration="none" x="200" y="90">UNREGISTERED</text><text fill="#eeeeee" stroke="none" font-family="Arial" font-size="24px" font-style="normal" font-weight="normal" text-decoration="none" x="200" y="120">UNREGISTERED</text><text fill="#eeeeee" stroke="none" font-family="Arial" font-size="24px" font-style="normal" font-weight="normal" text-decoration="none" x="200" y="150">UNREGISTERED</text><text fill="#eeeeee" stroke="none" font-family="Arial" font-size="24px" font-style="normal" font-weight="normal" text-decoration="none" x="200" y="180">UNREGISTERED</text><text fill="#eeeeee" stroke="none" font-family="Arial" font-size="24px" font-style="normal" font-weight="normal" text-decoration="none" x="200" y="210">UNREGISTERED</text><text fill="#eeeeee" stroke="none" font-family="Arial" font-size="24px" font-style="normal" font-weight="normal" text-decoration="none" x="200" y="240">UNREGISTERED</text><text fill="#eeeeee" stroke="none" font-family="Arial" font-size="24px" font-style="normal" font-weight="normal" text-decoration="none" x="400" y="0">UNREGISTERED</text><text fill="#eeeeee" stroke="none" font-family="Arial" font-size="24px" font-style="normal" font-weight="normal" text-decoration="none" x="400" y="30">UNREGISTERED</text><text fill="#eeeeee" stroke="none" font-family="Arial" font-size="24px" font-style="normal" font-weight="normal" text-decoration="none" x="400" y="60">UNREGISTERED</text><text fill="#eeeeee" stroke="none" font-family="Arial" font-size="24px" font-style="normal" font-weight="normal" text-decoration="none" x="400" y="90">UNREGISTERED</text><text fill="#eeeeee" stroke="none" font-family="Arial" font-size="24px" font-style="normal" font-weight="normal" text-decoration="none" x="400" y="120">UNREGISTERED</text><text fill="#eeeeee" stroke="none" font-family="Arial" font-size="24px" font-style="normal" font-weight="normal" text-decoration="none" x="400" y="150">UNREGISTERED</text><text fill="#eeeeee" stroke="none" font-family="Arial" font-size="24px" font-style="normal" font-weight="normal" text-decoration="none" x="400" y="180">UNREGISTERED</text><text fill="#eeeeee" stroke="none" font-family="Arial" font-size="24px" font-style="normal" font-weight="normal" text-decoration="none" x="400" y="210">UNREGISTERED</text><text fill="#eeeeee" stroke="none" font-family="Arial" font-size="24px" font-style="normal" font-weight="normal" text-decoration="none" x="400" y="240">UNREGISTERED</text><text fill="#eeeeee" stroke="none" font-family="Arial" font-size="24px" font-style="normal" font-weight="normal" text-decoration="none" x="600" y="0">UNREGISTERED</text><text fill="#eeeeee" stroke="none" font-family="Arial" font-size="24px" font-style="normal" font-weight="normal" text-decoration="none" x="600" y="30">UNREGISTERED</text><text fill="#eeeeee" stroke="none" font-family="Arial" font-size="24px" font-style="normal" font-weight="normal" text-decoration="none" x="600" y="60">UNREGISTERED</text><text fill="#eeeeee" stroke="none" font-family="Arial" font-size="24px" font-style="normal" font-weight="normal" text-decoration="none" x="600" y="90">UNREGISTERED</text><text fill="#eeeeee" stroke="none" font-family="Arial" font-size="24px" font-style="normal" font-weight="normal" text-decoration="none" x="600" y="120">UNREGISTERED</text><text fill="#eeeeee" stroke="none" font-family="Arial" font-size="24px" font-style="normal" font-weight="normal" text-decoration="none" x="600" y="150">UNREGISTERED</text><text fill="#eeeeee" stroke="none" font-family="Arial" font-size="24px" font-style="normal" font-weight="normal" text-decoration="none" x="600" y="180">UNREGISTERED</text><text fill="#eeeeee" stroke="none" font-family="Arial" font-size="24px" font-style="normal" font-weight="normal" text-decoration="none" x="600" y="210">UNREGISTERED</text><text fill="#eeeeee" stroke="none" font-family="Arial" font-size="24px" font-style="normal" font-weight="normal" text-decoration="none" x="600" y="240">UNREGISTERED</text><g transform="translate(-46,-142) scale(1,1)"><rect fill="#C0C0C0" stroke="none" x="167" y="167" width="163.55908203125" height="240" opacity="0.2"/></g><g transform="translate(-46,-142) scale(1,1)"><rect fill="#ffffff" stroke="none" x="160" y="160" width="163.55908203125" height="240"/></g><g transform="translate(-46,-142) scale(1,1)"><path fill="none" stroke="#000000" d="M 160 160 L 323.55908203125 160 L 323.55908203125 400 L 160 400 L 160 160 Z Z" stroke-miterlimit="10"/></g><g transform="translate(-46,-142) scale(1,1)"><g><path fill="none" stroke="none"/><text fill="#000000" stroke="none" font-family="Arial" font-size="13px" font-style="normal" font-weight="bold" text-decoration="none" x="168.07373046875" y="179.5">Maquina Cafe - Modelo A</text></g></g><g transform="translate(-46,-142) scale(1,1)"><rect fill="#C0C0C0" stroke="none" x="487" y="159" width="176" height="240" opacity="0.2"/></g><g transform="translate(-46,-142) scale(1,1)"><rect fill="#ffffff" stroke="none" x="480" y="152" width="176" height="240"/></g><g transform="translate(-46,-142) scale(1,1)"><path fill="none" stroke="#000000" d="M 480 152 L 656 152 L 656 392 L 480 392 L 480 152 Z Z" stroke-miterlimit="10"/></g><g transform="translate(-46,-142) scale(1,1)"><g><path fill="none" stroke="none"/><text fill="#000000" stroke="none" font-family="Arial" font-size="13px" font-style="normal" font-weight="bold" text-decoration="none" x="498.2646484375" y="171.5">Maquina Cafe Modelo B</text></g></g><g transform="translate(-46,-142) scale(1,1)"><path fill="#ffffff" stroke="none" d="M 412.02116672585225 209.68 C 412.02116672585225 204.886167936 415.90700905079774 201 420.700439453125 201 C 425.49386985545226 201 429.37971218039775 204.886167936 429.37971218039775 209.68 C 429.37971218039775 214.47383206400002 425.49386985545226 218.36 420.700439453125 218.36 C 415.90700905079774 218.36 412.02116672585225 214.47383206400002 412.02116672585225 209.68 Z"/></g><g transform="translate(-46,-142) scale(1,1)"><path fill="none" stroke="#000000" d="M 412.02116672585225 209.68 C 412.02116672585225 204.886167936 415.90700905079774 201 420.700439453125 201 C 425.49386985545226 201 429.37971218039775 204.886167936 429.37971218039775 209.68 C 429.37971218039775 214.47383206400002 425.49386985545226 218.36 420.700439453125 218.36 C 415.90700905079774 218.36 412.02116672585225 214.47383206400002 412.02116672585225 209.68 Z" stroke-miterlimit="10"/></g><g transform="translate(-46,-142) scale(1,1)"><path fill="none" stroke="#000000" d="M 420.700439453125 218.36 L 420.700439453125 235.64" stroke-miterlimit="10"/></g><g transform="translate(-46,-142) scale(1,1)"><path fill="none" stroke="#000000" d="M 411.51062127130683 224.84 L 429.89025763494317 224.84" stroke-miterlimit="10"/></g><g transform="translate(-46,-142) scale(1,1)"><path fill="none" stroke="#000000" d="M 420.700439453125 235.64 L 407.93680308948865 253" stroke-miterlimit="10"/></g><g transform="translate(-46,-142) scale(1,1)"><path fill="none" stroke="#000000" d="M 420.700439453125 235.64 L 433.46407581676135 253" stroke-miterlimit="10"/></g><g transform="translate(-46,-142) scale(1,1)"><g><path fill="none" stroke="none"/><text fill="#000000" stroke="none" font-family="Arial" font-size="13px" font-style="normal" font-weight="bold" text-decoration="none" x="398.302734375" y="273.5">Usuario</text></g></g><g transform="translate(-46,-142) scale(1,1)"><path fill="#C0C0C0" stroke="none" d="M 503 248 C 503 238.6111584 532.7730607999999 231 569.5 231 C 606.2269392000001 231 636 238.6111584 636 248 C 636 257.3888416 606.2269392000001 265 569.5 265 C 532.7730607999999 265 503 257.3888416 503 248 Z" opacity="0.2"/></g><g transform="translate(-46,-142) scale(1,1)"><path fill="#ffffff" stroke="none" d="M 496 241 C 496 231.6111584 525.7730607999999 224 562.5 224 C 599.2269392000001 224 629 231.6111584 629 241 C 629 250.3888416 599.2269392000001 258 562.5 258 C 525.7730607999999 258 496 250.3888416 496 241 Z"/></g><g transform="translate(-46,-142) scale(1,1)"><path fill="none" stroke="#000000" d="M 496 241 C 496 231.6111584 525.7730607999999 224 562.5 224 C 599.2269392000001 224 629 231.6111584 629 241 C 629 250.3888416 599.2269392000001 258 562.5 258 C 525.7730607999999 258 496 250.3888416 496 241 Z" stroke-miterlimit="10"/></g><g transform="translate(-46,-142) scale(1,1)"><g><path fill="none" stroke="none"/><text fill="#000000" stroke="none" font-family="Arial" font-size="13px" font-style="normal" font-weight="bold" text-decoration="none" x="521.675048828125" y="248">Preparar Cafe</text></g></g><g transform="translate(-46,-142) scale(1,1)"><path fill="none" stroke="#000000" d="M 450 239 L 495 240" stroke-miterlimit="10"/></g><g transform="translate(-46,-142) scale(1,1)"><path fill="#C0C0C0" stroke="none" d="M 191 328 C 191 318.6111584 220.3253456 311 256.5 311 C 292.6746544 311 322 318.6111584 322 328 C 322 337.3888416 292.6746544 345 256.5 345 C 220.3253456 345 191 337.3888416 191 328 Z" opacity="0.2"/></g><g transform="translate(-46,-142) scale(1,1)"><path fill="#ffffff" stroke="none" d="M 184 321 C 184 311.6111584 213.3253456 304 249.5 304 C 285.6746544 304 315 311.6111584 315 321 C 315 330.3888416 285.6746544 338 249.5 338 C 213.3253456 338 184 330.3888416 184 321 Z"/></g><g transform="translate(-46,-142) scale(1,1)"><path fill="none" stroke="#000000" d="M 184 321 C 184 311.6111584 213.3253456 304 249.5 304 C 285.6746544 304 315 311.6111584 315 321 C 315 330.3888416 285.6746544 338 249.5 338 C 213.3253456 338 184 330.3888416 184 321 Z" stroke-miterlimit="10"/></g><g transform="translate(-46,-142) scale(1,1)"><g><path fill="none" stroke="none"/><text fill="#000000" stroke="none" font-family="Arial" font-size="13px" font-style="normal" font-weight="bold" text-decoration="none" x="209.3955078125" y="328">Calentar Café</text></g></g><g transform="translate(-46,-142) scale(1,1)"><path fill="#C0C0C0" stroke="none" d="M 183 240 C 183 230.6111584 212.7730608 223 249.5 223 C 286.2269392 223 316 230.6111584 316 240 C 316 249.3888416 286.2269392 257 249.5 257 C 212.7730608 257 183 249.3888416 183 240 Z" opacity="0.2"/></g><g transform="translate(-46,-142) scale(1,1)"><path fill="#ffffff" stroke="none" d="M 176 233 C 176 223.6111584 205.7730608 216 242.5 216 C 279.2269392 216 309 223.6111584 309 233 C 309 242.3888416 279.2269392 250 242.5 250 C 205.7730608 250 176 242.3888416 176 233 Z"/></g><g transform="translate(-46,-142) scale(1,1)"><path fill="none" stroke="#000000" d="M 176 233 C 176 223.6111584 205.7730608 216 242.5 216 C 279.2269392 216 309 223.6111584 309 233 C 309 242.3888416 279.2269392 250 242.5 250 C 205.7730608 250 176 242.3888416 176 233 Z" stroke-miterlimit="10"/></g><g transform="translate(-46,-142) scale(1,1)"><g><path fill="none" stroke="none"/><text fill="#000000" stroke="none" font-family="Arial" font-size="13px" font-style="normal" font-weight="bold" text-decoration="none" x="201.675048828125" y="240">Preparar Café</text></g></g><g transform="translate(-46,-142) scale(1,1)"><path fill="#ffffff" stroke="none" d="M 76.02116672585227 225.68 C 76.02116672585227 220.886167936 79.90700905079773 217 84.700439453125 217 C 89.49386985545227 217 93.37971218039773 220.886167936 93.37971218039773 225.68 C 93.37971218039773 230.47383206400002 89.49386985545227 234.36 84.700439453125 234.36 C 79.90700905079773 234.36 76.02116672585227 230.47383206400002 76.02116672585227 225.68 Z"/></g><g transform="translate(-46,-142) scale(1,1)"><path fill="none" stroke="#000000" d="M 76.02116672585227 225.68 C 76.02116672585227 220.886167936 79.90700905079773 217 84.700439453125 217 C 89.49386985545227 217 93.37971218039773 220.886167936 93.37971218039773 225.68 C 93.37971218039773 230.47383206400002 89.49386985545227 234.36 84.700439453125 234.36 C 79.90700905079773 234.36 76.02116672585227 230.47383206400002 76.02116672585227 225.68 Z" stroke-miterlimit="10"/></g><g transform="translate(-46,-142) scale(1,1)"><path fill="none" stroke="#000000" d="M 84.700439453125 234.36 L 84.700439453125 251.64" stroke-miterlimit="10"/></g><g transform="translate(-46,-142) scale(1,1)"><path fill="none" stroke="#000000" d="M 75.51062127130682 240.84 L 93.89025763494318 240.84" stroke-miterlimit="10"/></g><g transform="translate(-46,-142) scale(1,1)"><path fill="none" stroke="#000000" d="M 84.700439453125 251.64 L 71.93680308948863 269" stroke-miterlimit="10"/></g><g transform="translate(-46,-142) scale(1,1)"><path fill="none" stroke="#000000" d="M 84.700439453125 251.64 L 97.46407581676137 269" stroke-miterlimit="10"/></g><g transform="translate(-46,-142) scale(1,1)"><g><path fill="none" stroke="none"/><text fill="#000000" stroke="none" font-family="Arial" font-size="13px" font-style="normal" font-weight="bold" text-decoration="none" x="62.302734375" y="289.5">Usuario</text></g></g><g transform="translate(-46,-142) scale(1,1)"><path fill="none" stroke="#000000" d="M 114 251 L 175 242" stroke-miterlimit="10"/></g><g transform="translate(-46,-142) scale(1,1)"><path fill="none" stroke="#000000" d="M 114 267 L 204 303" stroke-miterlimit="10"/></g></g></svg>